<?xml version="1.0" encoding="UTF-8" standalone="no"?>
<!-- Created with Inkscape (http://www.inkscape.org/) -->

<svg
   width="1920mm"
   height="1080mm"
   viewBox="0 0 1920.0001 1080"
   version="1.1"
   id="svg1"
   xml:space="preserve"
   inkscape:version="1.3 (0e150ed6c4, 2023-07-21)"
   sodipodi:docname="this_is_the_way.svg"
   inkscape:export-filename="..\..\..\dev\projetos\di\docs\go-path\bg.png"
   inkscape:export-xdpi="25.4"
   inkscape:export-ydpi="25.4"
   xmlns:inkscape="http://www.inkscape.org/namespaces/inkscape"
   xmlns:sodipodi="http://sodipodi.sourceforge.net/DTD/sodipodi-0.dtd"
   xmlns="http://www.w3.org/2000/svg"
   xmlns:svg="http://www.w3.org/2000/svg"
   xmlns:rdf="http://www.w3.org/1999/02/22-rdf-syntax-ns#"
   xmlns:cc="http://creativecommons.org/ns#"
   xmlns:dc="http://purl.org/dc/elements/1.1/"><title
     id="title4">Go Path logo</title><sodipodi:namedview
     id="namedview1"
     pagecolor="#505050"
     bordercolor="#ffffff"
     borderopacity="1"
     inkscape:showpageshadow="0"
     inkscape:pageopacity="0"
     inkscape:pagecheckerboard="1"
     inkscape:deskcolor="#505050"
     inkscape:document-units="mm"
     inkscape:zoom="0.12141866"
     inkscape:cx="1511.2999"
     inkscape:cy="1676.0192"
     inkscape:window-width="1920"
     inkscape:window-height="1009"
     inkscape:window-x="-8"
     inkscape:window-y="-8"
     inkscape:window-maximized="1"
     inkscape:current-layer="layer1" /><defs
     id="defs1"><filter
       inkscape:collect="always"
       style="color-interpolation-filters:sRGB"
       id="filter46"
       x="-0.058436882"
       y="-0.060326102"
       width="1.1168738"
       height="1.1206522"><feGaussianBlur
         inkscape:collect="always"
         stdDeviation="0.13925182"
         id="feGaussianBlur46" /></filter></defs><g
     inkscape:label="Layer 1"
     inkscape:groupmode="layer"
     id="layer1"
     transform="translate(-46.78869,-94.240628)"
     style="display:inline"><g
       id="XMLID_17627_"
       transform="matrix(-3.9129428,-0.14626191,0.14626189,-3.9129428,957.7449,988.83342)"
       style="display:inline;stroke-width:1.09339"
       inkscape:label="syringe"
       inkscape:export-filename="..\assets\logo.png"
       inkscape:export-xdpi="15.45656"
       inkscape:export-ydpi="15.45656">&#10;	&#10;		&#10;	&#10;		&#10;	&#10;		<g
   id="g14"
   style="display:inline;stroke-width:1.09339"><rect
     id="XMLID_17637_"
     x="7.5999999"
     y="16.396812"
     transform="matrix(0.7071,0.7071,-0.7071,0.7071,28.2427,4.1637)"
     class="st3"
     width="3.0000005"
     height="22.303188"
     style="display:inline;fill:#adc4d9;fill-opacity:1;stroke:#000000;stroke-opacity:1" /><path
     class="st3"
     d="M 10.2,40.8 4.5,35.1 c -0.4,-0.4 -1,-0.4 -1.4,0 -0.4,0.4 -0.4,1 0,1.4 l 5.7,5.7 c 0.4,0.4 1,0.4 1.4,0 0.3,-0.4 0.3,-1 0,-1.4 z"
     id="path6-5"
     style="display:inline;fill:#adc4d9;fill-opacity:1;stroke:#000000;stroke-opacity:1" /></g><rect
   id="XMLID_17650_"
   x="14.6"
   y="20.6"
   transform="matrix(0.7071,0.7071,-0.7071,0.7071,24.2886,-5.3822)"
   class="st3"
   width="8"
   height="12"
   style="fill:#e5f8ff;fill-opacity:1;stroke:#000000;stroke-opacity:1" />&#10;	&#10;	&#10;	&#10;	<path
   id="XMLID_17646_"
   class="st3"
   d="M 25.7,25.2 20,19.5 27.2,12.3 c 0.1,-0.1 0.3,-0.1 0.4,0 l 5.2,5.2 c 0.1,0.1 0.1,0.3 0,0.5 z"
   style="fill:#fda813;fill-opacity:1;stroke:#000000;stroke-opacity:1" />&#10;	&#10;	&#10;	<polygon
   id="XMLID_17643_"
   class="st3"
   points="33.1,15 32.9,17.5 27.7,12.4 30.3,12.1 "
   style="fill:#d9fdff;fill-opacity:1;stroke:#000000;stroke-opacity:1" />&#10;	&#10;	&#10;	<path
   class="st3"
   d="M 18.6,35.1 10.1,26.6 C 9.6,26 8.6,26 8,26.6 7.4,27.2 7.4,28.1 8,28.7 l 8.5,8.5 c 0.6,0.6 1.5,0.6 2.1,0 0.6,-0.6 0.6,-1.5 0,-2.1 z"
   id="path3-6"
   style="fill:#e5feff;fill-opacity:1;stroke:#000000;stroke-opacity:1" />&#10;	&#10;	&#10;	<path
   id="XMLID_17640_"
   class="st3"
   d="M 13,36.5 8.6,32.1 C 8.5,32 8.5,31.8 8.6,31.7 l 1.2,-1.2 4.9,4.9 -1.1,1.1 c -0.1,0.2 -0.4,0.2 -0.6,0 z"
   style="fill:#e5feff;fill-opacity:1;stroke:#000000;stroke-opacity:1" />&#10;	&#10;		&#10;	&#10;		&#10;	&#10;		&#10;	&#10;	&#10;	&#10;	&#10;	&#10;	<path
   id="XMLID_17635_"
   class="st3"
   d="m 30.3,10.7 c 0.4,-0.4 1,-0.4 1.4,0 l 2.8,2.8 c 0.4,0.4 0.4,1 0,1.4 -0.4,0.4 -1,0.4 -1.4,0 l -2.8,-2.8 c -0.4,-0.4 -0.4,-1 0,-1.4 z"
   style="fill:#d9fdff;fill-opacity:1;stroke:#000000;stroke-opacity:1" />&#10;	&#10;	&#10;	<path
   id="XMLID_17632_"
   class="st3"
   d="m 34.2,13.2 -2.1,-2.1 2.8,-2.8 c 0.4,-0.4 1,-0.4 1.4,0 L 37,9 c 0.4,0.4 0.4,1 0,1.4 z"
   style="fill:#d9fdff;fill-opacity:1;stroke:#000000;stroke-opacity:1" />&#10;	&#10;	&#10;	&#10;	&#10;		&#10;	&#10;		&#10;	&#10;		&#10;	<path
   id="XMLID_17628_"
   class="st3"
   style="fill:none;stroke:#000000;stroke-linecap:round;stroke-linejoin:round;stroke-miterlimit:10;stroke-opacity:1"
   d="M 36.700001,8.6000004 41.599998,3.5999999" />&#10;	&#10;	&#10;	&#10;</g><path
       class="st3"
       d="m 785.71516,997.99062 5.97344,-23.56989 c 0.37699,-1.17946 1.5419,-1.97711 2.32498,-1.9868 0.78308,-0.01 1.96737,0.75883 2.37348,1.92857 l 6.55575,23.4146 c 1.63893,5.8537 -2.60004,11.3887 -8.47313,11.4615 -5.87306,0.073 -10.24788,-5.3555 -8.75452,-11.24798 z"
       id="path13-0"
       style="display:inline;fill:#c00100;fill-opacity:0.709677;stroke:#000000;stroke-width:4.28136;stroke-opacity:1"
       inkscape:label="blood"
       inkscape:export-filename="..\assets\logo.png"
       inkscape:export-xdpi="15.521784"
       inkscape:export-ydpi="15.521784" /><g
       id="g1"
       transform="matrix(-0.2391335,0,0,0.23918509,171.87416,150.20864)"
       style="display:inline;stroke-width:1.10631"
       inkscape:label="gopher"><path
         fill-rule="evenodd"
         clip-rule="evenodd"
         fill="#f6d2a2"
         stroke="#000000"
         stroke-width="19.6288"
         stroke-linecap="round"
         d="m -2812.3415,2712.0937 c 4.5185,93.1548 97.5787,50.052 139.7293,20.9304 40.0097,-27.6489 51.708,-4.6663 55.221,-59.2308 2.3007,-35.8639 6.4347,-71.7277 4.4002,-107.7334 -60.5024,-5.4825 -126.3099,8.9245 -175.9124,44.9599 -25.5495,18.5647 -73.4546,77.8192 -23.4381,101.0739"
         id="path1" /><path
         fill-rule="evenodd"
         clip-rule="evenodd"
         fill="#6ad7e5"
         stroke="#000000"
         stroke-width="19.6288"
         stroke-linecap="round"
         d="m -1008.4371,1299.4777 c 149.25191,-225.6196 244.13411,-161.0989 281.74722,-57.4195 25.89002,71.3648 -4.1241,137.6122 -169.10608,152.5522 z"
         id="path47"
         style="fill:#6ad7e5;fill-opacity:1"
         sodipodi:nodetypes="cscc" /><path
         fill-rule="evenodd"
         clip-rule="evenodd"
         fill="#6ad7e5"
         stroke="#000000"
         stroke-width="19.6288"
         stroke-linecap="round"
         d="m -2505.6728,1485.3674 c -268.5521,-32.5599 -253.2904,-146.2816 -177.3883,-226.3005 52.245,-55.0789 124.9209,-57.8696 212.0842,83.002 z"
         id="path3"
         style="fill:#6ad7e5;fill-opacity:1"
         sodipodi:nodetypes="cscc" /><g
         id="g46"
         transform="matrix(7.7301001,-20.973786,20.973786,7.7301001,-4795.3761,-401.95769)"
         style="stroke-width:1.10631"><path
           fill-rule="evenodd"
           clip-rule="evenodd"
           fill="#f6d2a2"
           stroke="#231f20"
           stroke-width="3"
           stroke-linecap="round"
           d="m -39.927365,121.63657 c 0.216682,-1.79365 2.459058,-3.02105 3.795636,-3.38605 0.340485,-0.40858 -1.310203,-1.65169 -2.564986,-1.97612 -1.30123,-0.33644 -2.981111,-0.17865 -3.108793,0.33208 0.517231,1.31247 1.613515,2.2469 1.157903,4.89643 z"
           id="path46"
           style="opacity:1;mix-blend-mode:normal;fill:#000000;fill-opacity:0.224568;stroke:none;stroke-width:0.87813;stroke-dasharray:none;filter:url(#filter46)"
           sodipodi:nodetypes="ccsccc" /><path
           fill-rule="evenodd"
           clip-rule="evenodd"
           fill="#f6d2a2"
           stroke="#231f20"
           stroke-width="3"
           stroke-linecap="round"
           d="m -40.052376,122.68476 c 0.216682,-1.79365 2.252097,-4.19693 3.588675,-4.56193 -1.83327,-0.12868 -3.271491,2.10118 -3.271491,2.10118 0,0 -0.3419,-2.47842 -1.911256,-3.5503 0.517231,1.31247 1.23314,3.10748 0.777528,5.75701 z"
           id="path45"
           style="opacity:1;fill:#0b0b0b;fill-opacity:1;stroke:none;stroke-width:0.87813;stroke-dasharray:none"
           sodipodi:nodetypes="cccccc" /></g><g
         id="g49"
         transform="matrix(-7.6851538,-20.990297,-20.990297,7.6851538,1359.6807,-456.10376)"
         style="stroke-width:1.10631"><path
           fill-rule="evenodd"
           clip-rule="evenodd"
           fill="#f6d2a2"
           stroke="#231f20"
           stroke-width="3"
           stroke-linecap="round"
           d="m -39.927365,121.63657 c 0.216682,-1.79365 2.459058,-3.02105 3.795636,-3.38605 0.340485,-0.40858 -1.310203,-1.65169 -2.564986,-1.97612 -1.30123,-0.33644 -2.981111,-0.17865 -3.108793,0.33208 0.517231,1.31247 1.613515,2.2469 1.157903,4.89643 z"
           id="path48"
           style="opacity:1;mix-blend-mode:normal;fill:#000000;fill-opacity:0.224568;stroke:none;stroke-width:0.87813;stroke-dasharray:none;filter:url(#filter46)"
           sodipodi:nodetypes="ccsccc" /><path
           fill-rule="evenodd"
           clip-rule="evenodd"
           fill="#f6d2a2"
           stroke="#231f20"
           stroke-width="3"
           stroke-linecap="round"
           d="m -40.052376,122.68476 c 0.216682,-1.79365 2.252097,-4.19693 3.588675,-4.56193 -1.83327,-0.12868 -3.271491,2.10118 -3.271491,2.10118 0,0 -0.3419,-2.47842 -1.911256,-3.5503 0.517231,1.31247 1.23314,3.10748 0.777528,5.75701 z"
           id="path49"
           style="opacity:1;fill:#0b0b0b;fill-opacity:1;stroke:none;stroke-width:0.87813;stroke-dasharray:none"
           sodipodi:nodetypes="cccccc" /></g><path
         fill-rule="evenodd"
         clip-rule="evenodd"
         fill="#c6b198"
         stroke="#000000"
         stroke-width="19.6288"
         stroke-linecap="round"
         d="m -2812.3415,2712.0937 c 13.5436,-5.0389 27.8974,-8.617 37.0881,-20.8653"
         id="path2" /><path
         fill-rule="evenodd"
         clip-rule="evenodd"
         fill="#f6d2a2"
         stroke="#000000"
         stroke-width="19.6288"
         stroke-linecap="round"
         d="m -952.16064,3858.5646 c 71.69805,44.3626 202.75118,178.5029 95.19523,243.5475 -103.34502,94.6215 -161.18609,-103.8596 -251.89239,-131.3607 39.0634,-53.0505 88.5772,-101.4229 156.69716,-112.1868 z"
         id="path5" /><path
         fill-rule="evenodd"
         clip-rule="evenodd"
         fill="none"
         stroke="#000000"
         stroke-width="19.6288"
         stroke-linecap="round"
         d="m -856.96541,4102.1062 c -15.94472,-31.7061 -21.29709,-68.7114 -47.91698,-94.2667"
         id="path6" /><path
         fill-rule="evenodd"
         clip-rule="evenodd"
         fill="#f6d2a2"
         stroke="#000000"
         stroke-width="19.6288"
         stroke-linecap="round"
         d="m -2233.0735,4010.1578 c -84.1534,13.0231 -131.5204,88.9439 -201.6748,127.4987 -66.1091,39.4183 -91.3983,-12.6209 -97.3539,-23.1837 -10.3617,-4.7255 -9.4923,4.4002 -25.4844,-11.7042 -61.2831,-96.7211 63.8558,-167.4197 129.0186,-215.4668 90.7596,-18.3459 147.6366,60.3369 195.4945,122.856 z"
         id="path7" /><path
         fill-rule="evenodd"
         clip-rule="evenodd"
         fill="none"
         stroke="#000000"
         stroke-width="19.6288"
         stroke-linecap="round"
         d="m -2532.0963,4114.4669 c 3.2055,-36.8633 32.4335,-61.5493 46.3556,-92.7172"
         id="path8" /><path
         fill-rule="evenodd"
         clip-rule="evenodd"
         fill="#f6d2a2"
         stroke="#000000"
         stroke-width="19.6288"
         stroke-linecap="round"
         d="m -554.05105,2700.2653 c -4.51846,93.1548 -97.57866,50.052 -139.72929,20.9304 -40.00967,-27.649 -51.70799,-4.6663 -55.22104,-59.2309 -2.30063,-35.8638 -6.43467,-71.7276 -4.40017,-107.7334 60.50243,-5.4824 126.30992,8.9246 175.91246,44.9599 25.5435,18.5647 73.45457,77.8193 23.43804,101.074"
         id="path11" /><path
         fill-rule="evenodd"
         clip-rule="evenodd"
         fill="#c6b198"
         stroke="#000000"
         stroke-width="19.6288"
         stroke-linecap="round"
         d="m -554.05105,2700.2653 c -13.54356,-5.0389 -27.89736,-8.617 -37.08805,-20.8654"
         id="path12" /><g
         id="g13"
         style="stroke-width:1.10631"
         transform="matrix(5.9142167,0,0,5.9142167,-2875.2333,934.91298)">&#10;	<path
   fill-rule="evenodd"
   clip-rule="evenodd"
   fill="#6ad7e5"
   stroke="#000000"
   stroke-width="3.31892"
   stroke-linecap="round"
   d="m 195.512,13.124 c 60.365,0 116.953,8.633 146.452,66.629 26.478,65.006 17.062,135.104 21.1,203.806 3.468,58.992 11.157,127.145 -16.21,181.812 -28.79,57.514 -100.73,71.982 -160,69.863 C 140.299,533.568 84.06,518.38 57.785,475.845 26.959,425.945 41.553,351.747 43.792,296.223 46.444,230.452 25.977,164.481 47.584,100.122 69.999,33.359 130.451,18.271 195.512,13.124"
   id="path13"
   style="fill:#6ad7e5;fill-opacity:1" />&#10;</g><g
         id="g44"
         transform="matrix(-22.614754,0,0,22.619392,-388.50101,-1067.3688)"
         style="display:inline;stroke-width:1.09339"
         inkscape:export-filename="..\..\..\dev\projetos\di\docs\go-path\g44.png"
         inkscape:export-xdpi="25.4"
         inkscape:export-ydpi="25.4"
         inkscape:label="eye-r"><circle
           style="fill:#ffffff;fill-opacity:1;stroke:#000000;stroke-width:1.15716;stroke-linejoin:bevel;stroke-dasharray:none;stroke-opacity:1"
           id="path36"
           cx="78.068497"
           cy="-131.39601"
           r="18.100079"
           transform="scale(1,-1)" /><g
           id="g3"
           inkscape:label="pupil"><g
             id="g5"
             inkscape:label="inner"><circle
               style="display:inline;fill:#000000;fill-opacity:1;stroke:none;stroke-width:1.15716;stroke-linejoin:bevel;stroke-dasharray:none;stroke-opacity:1"
               id="circle37"
               cx="83.411095"
               cy="-131.43298"
               r="3.4646804"
               transform="scale(1,-1)"
               inkscape:export-filename="..\..\..\dev\projetos\di\docs\go-path\circle37.png"
               inkscape:export-xdpi="25.4"
               inkscape:export-ydpi="25.4" /><ellipse
               style="display:inline;fill:#ffffff;fill-opacity:1;stroke:none;stroke-width:1.15716;stroke-linejoin:bevel;stroke-dasharray:none;stroke-opacity:1"
               id="circle38"
               cx="82.561729"
               cy="-129.77443"
               transform="scale(1,-1)"
               rx="1.0089374"
               ry="0.77911043" /></g></g><path
           id="circle49"
           style="fill:#000000;fill-opacity:0.134357;stroke:none;stroke-width:1.15716;stroke-linejoin:bevel"
           transform="scale(1,-1)"
           d="m 96.168575,-131.39601 c 10e-7,9.9964 -5.07012,15.40358 -14.344241,17.66671 0,0 12.445828,-5.93969 11.356279,-20.29429 -0.756575,-9.96772 -11.019217,-14.99098 -11.019217,-14.99098 6.336865,2.7928 14.00718,7.62216 14.007179,17.61856 z"
           sodipodi:nodetypes="sssss" /></g><g
         id="g43"
         transform="matrix(-22.614754,0,0,22.619392,-466.24445,-1119.0328)"
         style="display:inline;stroke-width:1.09339"
         inkscape:export-filename="..\..\..\dev\projetos\di\docs\go-path\g43.png"
         inkscape:export-xdpi="25.4"
         inkscape:export-ydpi="25.4"
         inkscape:label="eye-l"><circle
           style="fill:#ffffff;fill-opacity:1;stroke:#000000;stroke-width:1.15716;stroke-linejoin:bevel;stroke-dasharray:none;stroke-opacity:1"
           id="circle39"
           cx="31.504141"
           cy="-130.39047"
           transform="scale(1,-1)"
           r="15.307277" /><g
           id="g2"
           inkscape:label="pupil"><g
             id="g4"
             inkscape:label="inner"><circle
               style="display:inline;fill:#000000;fill-opacity:1;stroke:none;stroke-width:1.15716;stroke-linejoin:bevel;stroke-dasharray:none;stroke-opacity:1"
               id="circle40"
               cx="36.048019"
               cy="-130.50783"
               r="3.1076729"
               transform="scale(1,-1)"
               inkscape:export-filename="..\..\..\dev\projetos\di\docs\go-path\eye-left-dot.png"
               inkscape:export-xdpi="25.4"
               inkscape:export-ydpi="25.4" /><ellipse
               style="display:inline;fill:#ffffff;fill-opacity:1;stroke:none;stroke-width:1.15716;stroke-linejoin:bevel;stroke-dasharray:none;stroke-opacity:1"
               id="ellipse40"
               cx="35.286171"
               cy="-129.02019"
               transform="scale(1,-1)"
               rx="0.90497452"
               ry="0.69882941" /></g></g><path
           id="path50"
           style="fill:#000000;fill-opacity:0.134357;stroke:none;stroke-width:1.15716;stroke-linejoin:bevel"
           d="m 46.776989,130.53995 c 10e-7,-8.74139 -4.797804,-13.46971 -13.573813,-15.44871 0,0 11.777364,5.19398 10.746334,17.7464 -0.715939,8.7163 -10.427376,13.10891 -10.427376,13.10891 5.996513,-2.44217 13.254856,-6.66522 13.254855,-15.4066 z"
           sodipodi:nodetypes="sssss" /></g><g
         id="g45"
         transform="matrix(-22.352945,0,0,22.352945,-423.42765,-1057.965)"
         style="stroke-width:1.10631"><path
           fill-rule="evenodd"
           clip-rule="evenodd"
           fill="#ffffff"
           stroke="#000000"
           stroke-width="0.79375"
           stroke-linecap="round"
           d="m 56.615347,145.62448 c 0.0098,1.35296 0.371802,3.59882 -0.263552,4.91899 -0.444005,0.65277 -0.953991,0.83138 -1.704829,1.09516 -0.393037,-0.0592 -1.194205,-0.0684 -1.550415,-0.28222 -0.170185,-1.7873 0.180368,-4.64425 0.247678,-6.28775 z"
           id="path42"
           style="fill:#ffffff;fill-opacity:1;stroke-width:0.87813;stroke-dasharray:none"
           sodipodi:nodetypes="cccccc" /><path
           fill-rule="evenodd"
           clip-rule="evenodd"
           fill="#ffffff"
           stroke="#000000"
           stroke-width="0.79375"
           stroke-linecap="round"
           d="m 50.246175,145.89369 c -0.0098,1.35296 -0.07755,2.66385 0.268392,4.37558 0.444005,0.65277 1.005064,1.13963 1.755902,1.40341 0.393037,-0.0592 0.755248,-0.14005 1.111458,-0.35385 0.170185,-1.7873 -0.08734,-4.58174 -0.15465,-6.22524 z"
           id="path41"
           style="fill:#ffffff;fill-opacity:1;stroke-width:0.87813;stroke-dasharray:none"
           sodipodi:nodetypes="cccccc" /><path
           fill-rule="evenodd"
           clip-rule="evenodd"
           fill="#f6d2a2"
           stroke="#231f20"
           stroke-width="3"
           stroke-linecap="round"
           d="m 56.235626,141.21188 c 4.362731,0.56588 4.777992,3.13261 4.043715,5.34614 -1.332143,2.01345 -3.16253,0.12715 -6.667923,0.34422 -4.937051,-0.0175 -5.857568,1.79754 -6.859233,-0.84738 -0.838814,-3.97589 2.197335,-4.2122 3.641418,-4.87949 z"
           id="path40"
           style="opacity:1;fill:#f6d2a2;fill-opacity:1;stroke-width:0.87813;stroke-dasharray:none"
           sodipodi:nodetypes="cccccc" /><path
           fill-rule="evenodd"
           clip-rule="evenodd"
           fill="#f6d2a2"
           stroke="#231f20"
           stroke-width="3"
           stroke-linecap="round"
           d="m 54.221365,142.99719 c 2.136829,-0.30003 2.330625,-1.70662 2.138385,-2.55314 -0.512416,-0.98408 -1.865968,-0.43644 -3.324025,-0.41487 -1.138635,0.0168 -2.35866,-0.62963 -2.852574,0.61565 -0.329348,1.59503 0.541784,1.82666 1.915939,2.28528 z"
           id="path43"
           style="opacity:1;fill:#2f2e2b;fill-opacity:1;stroke-width:0.87813;stroke-dasharray:none"
           sodipodi:nodetypes="ccsccc" /><path
           id="path51"
           style="fill:#000000;fill-opacity:0.134357;stroke:none;stroke-width:1.17084;stroke-linejoin:bevel"
           d="m 59.881474,147.02516 c 1.260668,-2.71775 -1.09888,-6.02869 -1.040326,-4.84857 0.05807,1.1704 -0.746856,3.52937 -2.712182,3.29751 -2.7366,-0.32285 -8.937812,0.49847 -8.17338,1.7244 0.491443,0.78815 2.13797,-0.49337 5.419765,-0.40114 2.775124,0.078 6.095651,1.11273 6.506123,0.22783 z"
           sodipodi:nodetypes="sssssss" /></g></g><path
       id="path23"
       style="fill:#000000;stroke-width:5.9142"
       d="m 1065.1081,1094.4865 h -38.0904 l -1.2513,-5.8756 -1.2513,-5.8756 -3.2289,-22.2654 -3.229,-22.2654 -0.5282,-1.8554 -0.5283,-1.8555 -8.7678,-55.66345 -8.76779,-55.66349 -2.34426,-15.46212 -2.34421,-15.46207 -4.38791,-27.21324 -4.38786,-27.21329 -0.73124,-4.63859 -0.73124,-4.63864 31.34211,0.014 31.3421,0.014 4.401,0.72815 4.4011,0.7282 9.6729,51.52004 9.6728,51.52004 0.8834,0.97954 0.8833,0.97954 2.7184,-9.01981 2.7182,-9.01981 13.9474,-43.91232 13.9473,-43.91231 32.7058,-0.32866 32.7058,-0.32866 5.9728,26.92366 5.9729,26.92367 5.3281,22.26539 5.3281,22.26539 0.8707,4.10857 0.8708,4.10862 0.5599,-0.5599 0.5598,-0.55985 4.7879,-20.86626 4.788,-20.86626 5.5736,-24.73935 5.5735,-24.73929 1.5274,-7.11259 1.5274,-7.11253 h 35.8093 35.8093 l -0.8748,3.40163 -0.8748,3.40169 -9.8095,40.81989 -9.8095,40.81989 -4.2083,17.93602 -4.2083,17.93602 -13.7699,57.51894 -13.7699,57.5189 -2.9117,12.2333 -2.9118,12.2333 -1.6487,1.0451 -1.6487,1.0452 -36.1082,0.019 -36.1083,0.019 -0.8909,-1.4416 -0.891,-1.4416 -5.9519,-31.0287 -5.952,-31.0289 -4.6436,-24.3965 -4.6436,-24.39669 -0.7884,0.89426 -0.7883,0.89431 -12.7018,46.38622 -12.7019,46.3862 -2.4625,9.5865 -2.4626,9.5865 z m 345.782,-265.81754 -38.4016,0.72479 -38.4039,0.72236 -10.8549,36.63068 -10.8548,36.62819 -2.9354,9.89575 -2.933,9.8957 -8.5766,29.06872 -8.5742,29.06871 -5.2474,17.93602 -5.2475,17.93602 -10.9853,37.0244 -10.9877,37.0221 v 1.6331 1.6308 l 40.5106,-0.019 40.5106,-0.019 1.5994,-1.0123 1.597,-1.0147 6.7598,-23.3285 6.7598,-23.3283 1.5366,-0.9785 1.5389,-0.976 32.9922,-0.019 32.9898,-0.019 0.877,3.9983 0.8794,3.9985 2.184,6.825 2.1816,6.8251 4.5227,14.5343 4.5202,14.5343 h 43.8495 43.8495 v -2.0172 -2.0198 l -9.9706,-31.0691 -9.9731,-31.0715 -12.3744,-38.34601 -12.3745,-38.34594 -4.7885,-14.8436 -4.7908,-14.84359 -14.9885,-46.077 -14.991,-46.077 -5.8079,-0.10379 -5.8056,-0.10379 -9.8957,-0.44928 z m -22.5143,60.4809 h 0.819 0.8166 l 4.5009,15.15286 4.5034,15.15281 8.8375,29.06872 8.84,29.06871 1.1186,3.70366 1.1185,3.70122 v 1.55589 1.55346 h -29.8249 -29.8249 l 0.8674,-4.63864 0.8649,-4.63864 5.3296,-17.31749 5.332,-17.31755 8.3519,-27.5225 z m 218.6996,205.33684 h -38.2204 l -0.7704,-8.3495 -0.7705,-8.3495 -2.4509,-40.8199 -2.451,-40.81992 -0.6854,-2.96975 -0.6855,-2.96975 -39.6952,-61.97096 -39.6952,-61.97101 -11.5685,-18.05056 -11.5685,-18.0506 v -0.82919 -0.82918 l 42.7784,0.32539 42.7784,0.32539 24.0878,37.72746 24.0877,37.72752 0.8578,0.30435 0.8578,0.30435 19.1729,-38.43482 19.173,-38.43481 41.0683,0.403 41.0683,0.40299 1.1751,1.23696 1.175,1.23699 -23.6888,47.62915 -23.6889,47.6291 -16.1654,32.77368 -16.1653,32.77368 0.979,11.13274 0.979,11.1327 3.1259,38.4227 3.1259,38.4226 v 1.4695 1.4695 z m -573.1155,-282.20913 -22.3605,0.46424 0.654,-4.16196 0.654,-4.16191 7.2373,-70.08216 7.2374,-70.0822 4.3539,-0.72053 4.3539,-0.72054 17.0083,-0.014 17.0083,-0.014 v 5.45431 5.45426 l -6.1696,68.33623 -6.1697,68.33622 -0.7234,0.72334 -0.7234,0.72338 z m 69.1266,-0.44134 -36.0724,0.43947 -3.4794,-0.61694 -3.4795,-0.61693 0.7015,-6.40439 0.7015,-6.40439 1.3234,-15.45071 1.3235,-15.45071 0.6274,-0.62741 0.6274,-0.6274 20.0001,-0.62096 20.0001,-0.6209 1.5461,-1.00077 1.5462,-1.00071 v -2.17231 -2.17235 l -9.929,-11.67053 -9.9291,-11.67053 -4.2158,-8.65879 -4.2157,-8.65875 -1.4582,-5.85202 -1.4581,-5.85207 0.4976,-8.37305 0.4976,-8.3731 3.2823,-7.10496 3.2823,-7.10501 3.4736,-3.27219 3.4735,-3.27223 5.5664,-2.52687 5.5663,-2.52687 40.0588,-0.55106 40.0589,-0.55106 -0.8236,17.78455 -0.8238,17.78449 -0.6887,4.63859 -0.6886,4.63864 -19.992,0.0187 -19.992,0.0187 -2.7831,0.74583 -2.7833,0.74587 v 2.65516 2.65515 l 8.3882,9.55502 8.3882,9.55498 4.1109,6.78294 4.1109,6.78294 3.2014,7.76668 3.2014,7.76664 0.071,9.89574 0.071,9.8957 -1.7104,5.88803 -1.7105,5.88802 -4.8283,5.48521 -4.8282,5.48521 -6.8676,3.2489 -6.8676,3.2489 z m 222.7628,0.52432 -21.3377,-0.0977 -1.6183,-0.64793 -1.6184,-0.64797 0.882,-51.82547 0.8819,-51.82547 h -21.3986 -21.3986 l 0.7885,-8.34954 0.7886,-8.34948 0.01,-13.91591 0.01,-13.91586 h 63.7323 63.7323 l -0.3375,21.95618 -0.3376,21.95613 -20.7192,0.33895 -20.7192,0.33942 v 52.54114 52.54118 z m 90.0818,0.0977 h -22.6848 l -0.7768,-54.11732 -0.7768,-54.11727 -0.3563,-20.71918 -0.3562,-20.71919 h 21.2648 21.2647 l 0.7509,1.95665 0.7508,1.95659 0.01,13.19622 0.01,13.19621 0.7944,10.20501 0.7944,10.20496 h 16.6348 16.6348 l -0.9014,-25.35782 -0.9013,-25.35782 h 21.8107 21.8107 v 3.0425 3.04254 l 3.0531,60.352 3.0531,60.35201 0.7732,11.44195 0.7733,11.44196 h -22.8076 -22.8075 l -0.8103,-16.89463 -0.8102,-16.89463 v -10.31866 -10.31861 h -17.513 -17.5131 l 0.7607,27.21324 0.7606,27.21329 z m 177.1581,0 h -65.3051 l -0.01,-2.78321 -0.01,-2.78316 -1.8526,-34.01657 -1.8526,-34.01656 -1.85,-33.2779 -1.85,-33.27784 v -4.75884 -4.75888 h 56.1443 56.1443 l 0.6888,4.02016 0.6888,4.02012 1.4502,16.35474 1.45,16.35475 -0.7254,1.89053 -0.7254,1.89049 h -34.8358 -34.8357 l 0.7667,4.63864 0.7667,4.63863 0.014,2.78317 0.014,2.78316 h 22.8081 22.808 l 0.6365,5.25711 0.6364,5.25711 0.6298,8.34953 0.6298,8.34954 h -22.8964 -22.8963 l 0.3684,7.73101 0.3684,7.73106 41.6436,0.32539 41.6436,0.32539 0.8646,9.57017 0.8645,9.57017 1.4593,13.91586 1.4593,13.9159 z M 1113.2843,646.70466 h -33.282 v -0.35718 -0.35718 l 1.8754,-22.21752 1.8755,-22.21752 3.1014,-35.25356 3.1014,-35.25357 1.289,-14.04096 1.289,-14.04097 -0.8002,-0.80263 -0.8001,-0.80263 -29.8958,-0.61848 -29.8958,-0.61847 0.2678,-2.47395 0.2679,-2.4739 2.6411,-25.97629 2.641,-25.9763 0.5952,-0.61847 0.5952,-0.61852 91.5865,-0.38851 91.5864,-0.3885 -0.7518,13.9951 -0.7519,13.99506 -0.7871,15.77128 -0.7872,15.77133 h -30.6769 -30.6769 l -0.6983,7.73106 -0.6983,7.73102 -3.7412,59.37443 -3.7412,59.37438 -0.7229,5.87559 -0.7229,5.87558 z m 134.8058,0 h -33.273 l 0.675,-10.205 0.675,-10.20496 2.9972,-70.50709 2.9972,-70.50708 0.841,-21.95613 0.841,-21.95618 28.5829,0.0187 28.5828,0.0187 2.8221,0.75602 2.822,0.75602 -0.3483,32.62604 -0.3483,32.62599 25.0486,-8.5e-4 25.0486,-8.4e-4 v -32.62496 -32.62501 l 3.8655,-0.77308 3.8655,-0.77313 21.183,0.009 21.1831,0.009 6.3515,0.76313 6.3514,0.76317 0.8319,51.48792 0.8318,51.48792 1.0558,48.73772 1.0557,48.73772 -0.6403,1.66866 -0.6404,1.6687 h -33.3141 -33.3141 l 0.1524,-38.03673 0.152,-38.03672 -25.267,-0.33381 -25.267,-0.33381 -0.809,19.50673 -0.809,19.50673 v 16.90712 16.90711 l -0.7508,1.95659 -0.7508,1.95665 z m 198.2051,0 h -33.2471 l -0.7719,-25.0486 -0.772,-25.04856 -1.4089,-76.41431 -1.409,-76.41437 0.8931,-0.89604 0.8932,-0.89608 24.3299,-0.39926 24.3299,-0.39926 6.3016,0.77355 6.3017,0.77355 0.7868,21.27267 0.787,21.27272 1.8732,47.00474 1.8731,47.00474 1.2433,25.30078 1.2433,25.30082 v 8.40653 8.40652 z m 94.0657,0 h -55.5344 l -0.7623,-13.9159 -0.7623,-13.91586 -0.8,-18.05987 -0.8,-18.05986 2.9404,-0.78697 2.9403,-0.78697 26.9041,-0.0187 26.904,-0.0187 2.4948,-2.49489 2.4949,-2.49485 -1.7924,-3.38074 -1.7923,-3.38069 -15.6556,-15.45838 -15.6555,-15.45838 -5.9291,-8.04401 -5.9291,-8.04397 -4.0417,-8.04027 -4.0417,-8.04027 -1.6563,-6.18485 -1.6562,-6.18485 -0.014,-8.83771 -0.014,-8.83767 2.4677,-7.98927 2.4676,-7.98931 4.7974,-5.45005 4.7973,-5.45011 6.0324,-3.05376 6.0324,-3.05376 27.8318,-0.84461 27.8317,-0.84461 31.8907,-0.11033 31.8907,-0.11034 0.4437,1.54621 0.4436,1.54622 2.0789,24.12086 2.0789,24.12082 0.632,3.82437 0.6319,3.82441 -31.7307,0.73507 -31.7307,0.73503 -1.7683,1.46762 -1.7684,1.46763 v 2.34893 2.34898 l 5.9758,5.84913 5.9757,5.84908 11.4546,11.13269 11.4545,11.1327 6.0591,8.04027 6.059,8.04028 4.9583,9.89574 4.9583,9.89575 1.8581,7.37243 1.858,7.37243 v 9.62257 9.62258 l -2.2996,6.05207 -2.2996,6.05212 -3.3617,4.40736 -3.3616,4.40735 -5.7807,3.68271 -5.7807,3.68271 -7.692,2.57016 -7.692,2.57017 z"
       inkscape:label="this-is-the-way" /><path
       style="fill:#000000;stroke-width:5.91422"
       d="m 597.49289,337.10084 c -25.91663,-3.58419 -47.84815,-13.24122 -63.6598,-28.03114 -13.27813,-12.42015 -20.96697,-25.39701 -25.63949,-43.27314 l -3.63961,-13.92431 -0.12302,42.30853 -0.12361,42.30853 h -52.57431 c -39.61065,0 -56.62153,-0.83597 -68.98798,-3.39032 -51.73873,-10.68693 -82.05647,-44.11113 -85.60363,-94.37482 -3.46435,-49.09024 18.14507,-83.52062 66.35983,-105.73129 39.17626,-18.04687 99.56727,-11.2968 130.03631,14.53466 l 7.4389,6.30669 -21.04172,22.72283 -21.04172,22.72272 -7.18707,-5.48183 c -8.40417,-6.41018 -24.05525,-11.54733 -35.18059,-11.54733 -28.59358,0 -51.46125,21.36848 -51.46125,48.08743 0,28.07361 21.47018,44.02732 59.25107,44.02732 h 15.72604 v -21.422 -21.42206 h 32.13312 32.13306 v -9.18987 c 0,-5.0544 1.47649,-14.93529 3.28109,-21.95759 9.61096,-37.39861 33.25109,-60.13576 73.83829,-71.0175 19.45251,-5.21528 66.45592,-5.13845 85.55961,0.14017 47.11088,13.01689 73.07784,44.35408 76.56563,92.3997 5.28009,72.73865 -41.35623,117.42251 -121.42342,116.3398 -10.01484,-0.13544 -21.10069,-0.64613 -24.63538,-1.135 z m 53.31648,-60.73055 c 10.63737,-7.28886 15.97679,-18.07331 17.60107,-35.55041 2.54571,-27.39105 -8.48483,-50.62594 -26.6125,-56.05714 -19.18856,-5.74903 -40.25878,-1.78574 -52.41687,9.85965 -12.90524,12.36125 -15.80723,46.21943 -5.78819,67.53391 7.5731,16.1111 18.1392,21.0018 43.2308,20.00998 13.19668,-0.52163 17.97247,-1.67567 23.98569,-5.79599 z m 241.23659,-2.00492 v -62.12388 h 67.47944 c 64.6231,0 67.6608,-0.18156 71.7638,-4.28443 5.0697,-5.06973 5.366,-8.41227 1.2452,-14.05047 -2.9126,-3.98499 -6.7948,-4.18336 -93.18583,-4.76129 l -90.14674,-0.6032 v -30.99445 -30.99452 l 91.57922,0.0473 c 52.6027,0.0355 95.49185,0.95485 100.77225,2.17294 21.0603,4.85788 39.3545,18.03198 47.4814,34.19216 11.154,22.17979 12.5796,59.18871 2.9941,77.72505 -6.2733,12.13118 -21.8457,26.50267 -35.6023,32.85661 -12.8703,5.94462 -14.7355,6.1942 -51.3793,6.87758 l -38.02412,0.70924 v 27.6751 27.67522 h -37.48856 -37.48856 z m 199.27624,60.51723 c 0.024,-0.88365 15.2734,-47.87819 33.8781,-104.43236 l 33.8266,-102.82581 h 52.1645 52.1644 l 34.819,104.43241 34.819,104.43247 h -39.3038 -39.3038 l -4.5058,-12.31766 c -2.4783,-6.77473 -5.5669,-14.99372 -6.8635,-18.26434 l -2.3576,-5.94674 -31.2938,0.59083 -31.294,0.59083 -6.3465,17.67315 -6.3465,17.67316 h -37.0538 c -20.3795,0 -37.0306,-0.72301 -37.0025,-1.60665 z m 146.8546,-81.4037 c -0.6575,-2.06181 -6.8749,-20.61873 -13.8173,-41.23741 -14.0804,-41.81901 -12.1408,-40.57472 -21.7057,-13.92431 -2.1143,5.89103 -7.7678,21.55596 -12.5635,34.81084 l -8.7192,24.09979 h 29.0002 c 26.6465,0 28.9034,-0.30459 27.8055,-3.74891 z m 148.7182,9.10441 v -73.90607 h -33.2041 -33.2041 v -31.06199 -31.062 h 100.6835 100.6836 v 31.062 31.06199 h -33.2041 -33.2042 v 73.90607 73.906 h -34.2753 -34.2753 z m 139.2433,-31.062 V 126.55325 h 34.2753 34.2752 v 36.41756 36.41744 h 26.7776 26.7775 v -36.41744 -36.41756 h 34.2753 34.2752 v 104.96806 104.968 h -34.2752 -34.2753 v -37.48862 -37.48857 h -26.7775 -26.7776 v 37.48857 37.48862 h -34.2752 -34.2753 z"
       id="path4"
       inkscape:label="go-path" /></g><metadata
     id="metadata4"><rdf:RDF><cc:Work
         rdf:about=""><dc:title>Go Path logo</dc:title><dc:creator><cc:Agent><dc:title>Alex Rodin</dc:title></cc:Agent></dc:creator><dc:rights><cc:Agent><dc:title>https://github.com/go-path</dc:title></cc:Agent></dc:rights><dc:subject><rdf:Bag><rdf:li>golang</rdf:li><rdf:li>gopher</rdf:li></rdf:Bag></dc:subject><cc:license
           rdf:resource="http://creativecommons.org/licenses/by/4.0/" /></cc:Work><cc:License
         rdf:about="http://creativecommons.org/licenses/by/4.0/"><cc:permits
           rdf:resource="http://creativecommons.org/ns#Reproduction" /><cc:permits
           rdf:resource="http://creativecommons.org/ns#Distribution" /><cc:requires
           rdf:resource="http://creativecommons.org/ns#Notice" /><cc:requires
           rdf:resource="http://creativecommons.org/ns#Attribution" /><cc:permits
           rdf:resource="http://creativecommons.org/ns#DerivativeWorks" /></cc:License></rdf:RDF></metadata><style
     type="text/css"
     id="style1">&#10;	.st0{opacity:0.15;fill:#45413C;}&#10;	.st1{fill:#BF8256;}&#10;	.st2{fill:#915E3A;}&#10;	.st3{fill:none;stroke:#45413C;stroke-linecap:round;stroke-linejoin:round;stroke-miterlimit:10;}&#10;	.st4{fill:#DEA47A;}&#10;	.st5{fill:#DAEDF7;stroke:#45413C;stroke-linecap:round;stroke-linejoin:round;stroke-miterlimit:10;}&#10;	.st6{fill:#BF8256;stroke:#45413C;stroke-linecap:round;stroke-linejoin:round;stroke-miterlimit:10;}&#10;	.st7{fill:#FF6242;}&#10;	.st8{fill:#FF866E;}&#10;	.st9{fill:#DEBB7E;}&#10;	.st10{fill:#B89558;}&#10;	.st11{fill:#656769;}&#10;	.st12{fill:#525252;}&#10;	.st13{fill:#E04122;}&#10;	.st14{fill:#FFFFFF;}&#10;	.st15{fill:#F0F0F0;}&#10;	.st16{fill:#00B8F0;}&#10;	.st17{fill:#4ACFFF;}&#10;	.st18{fill:#C0DCEB;}&#10;	.st19{fill:#8CA4B8;}&#10;	.st20{fill:#FF6242;stroke:#45413C;stroke-linecap:round;stroke-linejoin:round;stroke-miterlimit:10;}&#10;	.st21{fill:#87898C;}&#10;	.st22{fill:#E0E0E0;}&#10;	.st23{fill:#E8F4FA;stroke:#45413C;stroke-linecap:round;stroke-linejoin:round;stroke-miterlimit:10;}&#10;	.st24{fill:#656769;stroke:#45413C;stroke-linecap:round;stroke-linejoin:round;stroke-miterlimit:10;}&#10;	.st25{fill:#DAEDF7;}&#10;	.st26{fill:#E8F4FA;}&#10;	.st27{fill:#ADC4D9;stroke:#45413C;stroke-linecap:round;stroke-linejoin:round;stroke-miterlimit:10;}&#10;	.st28{fill:#87898C;stroke:#45413C;stroke-linecap:round;stroke-linejoin:round;stroke-miterlimit:10;}&#10;	.st29{fill:#BDBEC0;}&#10;	.st30{fill:#FFFFFF;stroke:#45413C;stroke-linecap:round;stroke-linejoin:round;stroke-miterlimit:10;}&#10;	.st31{fill:#ADC4D9;}&#10;	.st32{fill:none;stroke:#00AED9;stroke-linecap:round;stroke-linejoin:round;stroke-miterlimit:10;}&#10;	.st33{fill:#FFFACF;}&#10;	.st34{fill:#FFE500;}&#10;	.st35{fill:#915E3A;stroke:#45413C;stroke-linecap:round;stroke-linejoin:round;stroke-miterlimit:10;}&#10;	.st36{fill:#FFAA54;}&#10;	.st37{fill:#627B8C;stroke:#45413C;stroke-linecap:round;stroke-linejoin:round;stroke-miterlimit:10;}&#10;	.st38{fill:#FFFEF2;}&#10;	.st39{fill:#FFFCE5;stroke:#45413C;stroke-linecap:round;stroke-linejoin:round;stroke-miterlimit:10;}&#10;	.st40{fill:#00F5BC;}&#10;	.st41{fill:#FFFCE5;}&#10;	.st42{fill:#FFFEF2;stroke:#45413C;stroke-linecap:round;stroke-linejoin:round;stroke-miterlimit:10;}&#10;	.st43{fill:#8CFFE4;}&#10;	.st44{fill:#FFF5E3;}&#10;	.st45{fill:#F7E5C6;}&#10;	.st46{fill:#F7E5C6;stroke:#45413C;stroke-linecap:round;stroke-linejoin:round;stroke-miterlimit:10;}&#10;	.st47{fill:#F0D5A8;}&#10;	.st48{fill:#FF87AF;stroke:#45413C;stroke-linecap:round;stroke-linejoin:round;stroke-miterlimit:10;}&#10;	.st49{fill:#45413C;}&#10;	.st50{fill:#BDBEC0;stroke:#45413C;stroke-linecap:round;stroke-linejoin:round;stroke-miterlimit:10;}&#10;	.st51{fill:#E0E0E0;stroke:#45413C;stroke-linecap:round;stroke-linejoin:round;stroke-miterlimit:10;}&#10;	.st52{fill:#DEBB7E;stroke:#45413C;stroke-linecap:round;stroke-linejoin:round;stroke-miterlimit:10;}&#10;	.st53{fill:#F5EBFF;stroke:#45413C;stroke-linecap:round;stroke-linejoin:round;stroke-miterlimit:10;}&#10;	.st54{fill:#BF8DF2;stroke:#45413C;stroke-linecap:round;stroke-linejoin:round;stroke-miterlimit:10;}&#10;	.st55{fill:#E4FFD1;stroke:#45413C;stroke-linecap:round;stroke-linejoin:round;stroke-miterlimit:10;}&#10;	.st56{fill:#F0FFE5;}&#10;	.st57{fill:#C8FFA1;stroke:#45413C;stroke-linecap:round;stroke-linejoin:round;stroke-miterlimit:10;}&#10;	.st58{fill:#6DD627;stroke:#45413C;stroke-linecap:round;stroke-linejoin:round;stroke-miterlimit:10;}&#10;	.st59{fill:#E5FEFF;}&#10;	.st60{fill:#FFAA54;stroke:#45413C;stroke-linecap:round;stroke-linejoin:round;stroke-miterlimit:10;}&#10;	.st61{fill:#9CEB60;stroke:#45413C;stroke-linecap:round;stroke-linejoin:round;stroke-miterlimit:10;}&#10;	.st62{fill:#FFF48C;}&#10;	.st63{fill:#00B8F0;stroke:#45413C;stroke-linecap:round;stroke-linejoin:round;stroke-miterlimit:10;}&#10;	.st64{fill:none;stroke:#4F4B45;stroke-linejoin:round;stroke-miterlimit:10;}&#10;	.st65{fill:#FFFFFF;stroke:#4F4B45;stroke-linejoin:round;stroke-miterlimit:10;}&#10;	.st66{fill:#FFF5E3;stroke:#4F4B45;stroke-linejoin:round;stroke-miterlimit:10;}&#10;	.st67{fill:#F7E5C6;stroke:#4F4B45;stroke-linejoin:round;stroke-miterlimit:10;}&#10;	.st68{fill:#6DD627;}&#10;	.st69{fill:#EBCB00;}&#10;	.st70{fill:#46B000;}&#10;	.st71{fill:none;stroke:#E0E0E0;stroke-linecap:round;stroke-linejoin:round;stroke-miterlimit:10;}&#10;	.st72{fill:#9CEB60;}&#10;	.st73{fill:#FFCC99;}&#10;	.st74{fill:#BF8DF2;}&#10;	.st75{fill:#9F5AE5;}&#10;	.st76{fill:#DABFF5;}&#10;	.st77{fill:#F0F0F0;stroke:#45413C;stroke-linecap:round;stroke-linejoin:round;stroke-miterlimit:10;}&#10;	.st78{fill:#E5F8FF;}&#10;	.st79{fill:#B8ECFF;}&#10;	.st80{fill:#D9FDFF;}&#10;	.st81{fill:#C0DCEB;stroke:#45413C;stroke-linecap:round;stroke-linejoin:round;stroke-miterlimit:10;}&#10;	.st82{fill:#46B000;stroke:#45413C;stroke-linecap:round;stroke-linejoin:round;stroke-miterlimit:10;}&#10;	.st83{fill:none;stroke:#FFFFFF;stroke-miterlimit:10;}&#10;	.st84{fill:none;stroke:#FFFFFF;stroke-linecap:round;stroke-linejoin:round;stroke-miterlimit:10;}&#10;	.st85{fill:#FFE500;stroke:#45413C;stroke-linecap:round;stroke-linejoin:round;stroke-miterlimit:10;}&#10;	.st86{fill:#80DDFF;stroke:#45413C;stroke-linecap:round;stroke-linejoin:round;stroke-miterlimit:10;}&#10;	.st87{fill:#FFFFFF;stroke:#45413C;stroke-linejoin:round;stroke-miterlimit:10;}&#10;	.st88{fill:#009FD9;stroke:#45413C;stroke-linecap:round;stroke-linejoin:round;stroke-miterlimit:10;}&#10;	.st89{fill:#E04122;stroke:#45413C;stroke-linecap:round;stroke-linejoin:round;stroke-miterlimit:10;}&#10;	.st90{fill:#009FD9;}&#10;	.st91{fill:#FFFFFF;stroke:#45413C;stroke-miterlimit:10;}&#10;	.st92{fill:#009FD9;stroke:#45413C;stroke-miterlimit:10;}&#10;	.st93{fill:#FF8A14;stroke:#45413C;stroke-linecap:round;stroke-linejoin:round;stroke-miterlimit:10;}&#10;	.st94{fill:none;stroke:#009FD9;stroke-linecap:round;stroke-linejoin:round;stroke-miterlimit:10;}&#10;	.st95{fill:#525252;stroke:#45413C;stroke-linecap:round;stroke-linejoin:round;stroke-miterlimit:10;}&#10;	.st96{fill:none;stroke:#46B000;stroke-linecap:round;stroke-linejoin:round;stroke-miterlimit:10;}&#10;	.st97{fill:none;stroke:#E04122;stroke-linecap:round;stroke-linejoin:round;stroke-miterlimit:10;}&#10;	.st98{fill:#6DD627;stroke:#45413C;stroke-miterlimit:10;}&#10;	.st99{fill:none;stroke:#45413C;stroke-linejoin:round;stroke-miterlimit:10;}&#10;	.st100{fill:#46B000;stroke:#45413C;stroke-miterlimit:10;}&#10;	.st101{fill:#00DFEB;}&#10;	.st102{fill:#00AD85;}&#10;	.st103{fill:#E04122;stroke:#45413C;stroke-miterlimit:10;}&#10;</style></svg>
