<?xml version="1.0" encoding="UTF-8" standalone="no"?>
<!-- Created with Inkscape (http://www.inkscape.org/) -->

<svg
   width="60mm"
   height="60mm"
   viewBox="0 0 60 60"
   version="1.1"
   id="svg8"
   inkscape:version="1.3 (0e150ed6c4, 2023-07-21)"
   sodipodi:docname="icons.svg"
   inkscape:export-filename="icon-component.png"
   inkscape:export-xdpi="35.98"
   inkscape:export-ydpi="35.98"
   inkscape:label="ghost-color"
   xml:space="preserve"
   xmlns:inkscape="http://www.inkscape.org/namespaces/inkscape"
   xmlns:sodipodi="http://sodipodi.sourceforge.net/DTD/sodipodi-0.dtd"
   xmlns:xlink="http://www.w3.org/1999/xlink"
   xmlns="http://www.w3.org/2000/svg"
   xmlns:svg="http://www.w3.org/2000/svg"
   xmlns:rdf="http://www.w3.org/1999/02/22-rdf-syntax-ns#"
   xmlns:cc="http://creativecommons.org/ns#"
   xmlns:dc="http://purl.org/dc/elements/1.1/"><defs
     id="defs2"><linearGradient
       inkscape:collect="always"
       id="linearGradient5"><stop
         style="stop-color:#f7eaa3;stop-opacity:1;"
         offset="0"
         id="stop5" /><stop
         id="stop4"
         offset="0.5"
         style="stop-color:#ecb4ee;stop-opacity:1;" /><stop
         style="stop-color:#a3cbf7;stop-opacity:1;"
         offset="1"
         id="stop3" /></linearGradient><linearGradient
       inkscape:collect="always"
       id="linearGradient3089"><stop
         style="stop-color:#1b6dff;stop-opacity:1"
         offset="0"
         id="stop3085" /><stop
         id="stop3097"
         offset="0.5"
         style="stop-color:#7148fe;stop-opacity:1" /><stop
         style="stop-color:#c621ff;stop-opacity:1"
         offset="1"
         id="stop3087" /></linearGradient><linearGradient
       inkscape:collect="always"
       xlink:href="#linearGradient5"
       id="linearGradient3091"
       x1="29.200924"
       y1="-0.13573565"
       x2="29.200924"
       y2="59.800461"
       gradientUnits="userSpaceOnUse" /><linearGradient
       inkscape:collect="always"
       xlink:href="#linearGradient5"
       id="linearGradient3113"
       x1="-16.609022"
       y1="11.449003"
       x2="-16.609022"
       y2="29.991337"
       gradientUnits="userSpaceOnUse" /><linearGradient
       inkscape:collect="always"
       xlink:href="#linearGradient3089"
       id="linearGradient3135"
       x1="-51.53207"
       y1="22.271713"
       x2="-51.53207"
       y2="71.273758"
       gradientUnits="userSpaceOnUse" /><linearGradient
       inkscape:collect="always"
       xlink:href="#linearGradient5"
       id="linearGradient3143"
       x1="6.2223449"
       y1="-5.3068438"
       x2="6.2223449"
       y2="20.684031"
       gradientUnits="userSpaceOnUse" /><linearGradient
       inkscape:collect="always"
       xlink:href="#linearGradient5"
       id="linearGradient869"
       gradientUnits="userSpaceOnUse"
       x1="-51.53207"
       y1="22.271713"
       x2="-51.53207"
       y2="71.273758" /><linearGradient
       inkscape:collect="always"
       xlink:href="#linearGradient5"
       id="linearGradient5789"
       x1="28.865108"
       y1="-0.13564365"
       x2="28.865108"
       y2="60.067822"
       gradientUnits="userSpaceOnUse"
       gradientTransform="matrix(0.99404505,0,0,0.99404505,0.17864909,0)" /><filter
       inkscape:collect="always"
       style="color-interpolation-filters:sRGB"
       id="filter46"
       x="-0.058436882"
       y="-0.060326102"
       width="1.1168738"
       height="1.1206522"><feGaussianBlur
         inkscape:collect="always"
         stdDeviation="0.13925182"
         id="feGaussianBlur46" /></filter><linearGradient
       inkscape:collect="always"
       xlink:href="#linearGradient5"
       id="linearGradient7"
       x1="198.30515"
       y1="-0.83571607"
       x2="198.30515"
       y2="354.02808"
       gradientUnits="userSpaceOnUse"
       spreadMethod="reflect" /><linearGradient
       inkscape:collect="always"
       xlink:href="#linearGradient5"
       id="linearGradient9"
       x1="-1021.4387"
       y1="1271.1031"
       x2="-708.8728"
       y2="1271.1031"
       gradientUnits="userSpaceOnUse" /><linearGradient
       inkscape:collect="always"
       xlink:href="#linearGradient5"
       id="linearGradient10"
       x1="-2740.8665"
       y1="1355.1682"
       x2="-2460.4729"
       y2="1355.1682"
       gradientUnits="userSpaceOnUse" /><linearGradient
       inkscape:collect="always"
       xlink:href="#linearGradient5"
       id="linearGradient157"
       x1="49.936764"
       y1="-45.088402"
       x2="49.93676"
       y2="15.484416"
       gradientUnits="userSpaceOnUse"
       gradientTransform="matrix(0.99603411,0,0,0.99603411,-20.541917,44.909586)" /><linearGradient
       inkscape:collect="always"
       xlink:href="#linearGradient5"
       id="linearGradient159"
       x1="-0.93544334"
       y1="22.744272"
       x2="59.064556"
       y2="22.744272"
       gradientUnits="userSpaceOnUse"
       gradientTransform="translate(0.93544317,9.4494048)" /></defs><sodipodi:namedview
     id="base"
     pagecolor="#ffffff"
     bordercolor="#666666"
     borderopacity="1.0"
     inkscape:pageopacity="0.0"
     inkscape:pageshadow="2"
     inkscape:zoom="2.8"
     inkscape:cx="128.75"
     inkscape:cy="132.67857"
     inkscape:document-units="mm"
     inkscape:current-layer="svg8"
     showgrid="false"
     showguides="true"
     inkscape:guide-bbox="true"
     inkscape:window-width="1920"
     inkscape:window-height="1009"
     inkscape:window-x="-8"
     inkscape:window-y="-8"
     inkscape:window-maximized="1"
     fit-margin-top="0"
     fit-margin-left="0"
     fit-margin-right="0"
     fit-margin-bottom="0"
     inkscape:showpageshadow="0"
     inkscape:pagecheckerboard="1"
     inkscape:deskcolor="#505050"><sodipodi:guide
       position="1.0263792e-06,60.135644"
       orientation="0,1"
       id="guide825"
       inkscape:locked="false" /><sodipodi:guide
       position="1.0263792e-06,14.579772"
       orientation="1,0"
       id="guide851"
       inkscape:locked="false" /></sodipodi:namedview><metadata
     id="metadata5"><rdf:RDF><cc:Work
         rdf:about=""><dc:format>image/svg+xml</dc:format><dc:type
           rdf:resource="http://purl.org/dc/dcmitype/StillImage" /><dc:title /></cc:Work></rdf:RDF></metadata><g
     id="g868"
     transform="matrix(2.2906228,0,0,2.2906228,12.340272,12.020334)"
     style="display:none;stroke-width:0.436563"
     sodipodi:insensitive="true"
     inkscape:label="basic"><path
       inkscape:connector-curvature="0"
       id="path862"
       d="M -2.873759,18.078532 H -3.054242 L -3.75775,16.785955 -4.461259,15.493379 V 15.066164 14.638948 L -3.932092,14.109782 -3.402925,13.580615 -3.40364,9.8103022 -3.404355,6.0399899 -4.395828,5.5103091 -5.3873,4.9806286 V 4.6252633 4.2698982 L 1.209507,0.944931 7.806314,-2.380036 14.306382,0.9039351 20.80645,4.1879065 v 0.396875 0.396875 l -2.579081,1.3229167 -2.579081,1.3229167 -6.09e-4,0.9860881 -6.08e-4,0.9860882 -0.604307,0.395957 -0.604307,0.3959568 -1.843089,0.26636 -1.843089,0.266359 H 7.709571 4.666862 L 2.823777,10.65794 0.980688,10.39158 0.376382,9.9956232 -0.227925,9.5996662 V 8.5542267 7.5087872 L -1.008536,7.1051177 -1.789147,6.7014482 h -0.277722 -0.277723 v 3.4395828 3.439584 l 0.529167,0.529167 0.529166,0.529166 v 0.427216 0.427215 l -0.703508,1.292576 -0.703508,1.292577 z m 0,-2.116667 h 0.207969 l 0.169273,-0.441118 0.169272,-0.441118 -0.273256,-0.273257 -0.273258,-0.273257 -0.273257,0.273257 -0.273257,0.273257 0.169273,0.441118 0.169273,0.441118 z m 11.58291,-6.2097058 4.306868,-0.06688 0.169,-0.169 0.169,-0.169001 L 13.210325,9.2035842 13.06663,9.0598892 9.925082,8.9020652 6.783533,8.7442403 4.468429,8.9372192 2.153325,9.1301982 v 0.225619 0.225619 l 1.124479,0.118799 1.124479,0.118799 z M 2.351762,8.0928222 3.873117,7.8920733 h 3.836458 3.836458 l 1.521355,0.2007489 1.521354,0.2007486 V 6.9845545 5.6755385 L 13.331971,5.4608892 12.0752,5.2462398 H 7.709575 3.34395 L 2.087179,5.4608892 0.830408,5.6755385 v 1.309016 1.3090163 z M -0.489103,6.1561827 -0.353406,6.1722817 -0.092228,5.5769692 0.16895,4.9816567 1.227283,4.5990867 2.285617,4.2165166 h 5.423958 5.423958 l 1.032518,0.3825701 1.032518,0.38257 0.290399,0.5291667 0.290399,0.5291667 0.03463,0.078727 0.03463,0.078728 1.486724,-0.7291579 1.486723,-0.7291575 V 4.5429842 4.3468383 L 13.5439,1.6876847 8.265725,-0.97146864 H 7.857028 7.44833 L 2.022702,1.7375131 -3.402926,4.4464946 V 4.593208 4.7399213 l 1.389062,0.7000811 1.389063,0.7000815 0.135697,0.0161 z"
       style="fill:url(#linearGradient3143);stroke-width:0.436563" /></g><g
     id="g871"
     inkscape:label="advanced"
     transform="matrix(1.2285909,0,0,1.2285909,91.77604,-27.498469)"
     style="display:none;fill:url(#linearGradient3135);fill-opacity:1;stroke-width:0.813941"
     sodipodi:insensitive="true"><path
       inkscape:connector-curvature="0"
       id="path843"
       d="m -49.084206,68.204552 -2.645428,0.471428 -5.803637,-2.42859 -5.803638,-2.428592 -1.239448,-0.0044 -1.239449,-0.0044 -0.533328,-1.389835 -0.533327,-1.389832 -1.305301,0.50089 -1.305298,0.500889 -2.60359,-3.934292 -2.603594,-3.934292 1.623315,-2.47749 1.623314,-2.477489 2.954796,-1.79692 2.954799,-1.796919 -2.765537,-1.733239 -2.765532,-1.733238 -0.313159,-0.202863 -0.313159,-0.202862 1.465449,-2.749889 1.465452,-2.74989 5.134963,-5.659016 5.134967,-5.659016 2.691718,2.126895 2.691722,2.126898 -0.27353,-1.304244 -0.273529,-1.304248 3.150287,-0.303581 3.150288,-0.30358 0.589945,1.537377 0.58995,1.537381 1.239104,-1.028368 1.239105,-1.028368 1.889208,2.401737 1.889207,2.401737 1.843293,-0.482033 1.843298,-0.482033 3.164435,5.221296 3.164436,5.221296 -0.614308,1.600861 -0.614312,1.600864 h 1.62851 1.628506 l -0.28234,3.277273 -0.28234,3.277251 1.292056,1.556834 1.292059,1.556837 -2.633868,3.453177 -2.633867,3.453181 -1.351767,-0.518723 -1.351771,-0.518723 -0.0106,1.178737 -0.0106,1.178732 -6.29112,2.687097 -6.291121,2.687097 z m -0.227247,-2.1121 1.45091,-0.483542 2.638306,-0.532469 2.63831,-0.532468 1.230784,-1.484218 1.230784,-1.484218 0.02925,-4.928302 0.02925,-4.928307 -1.238348,-1.278182 -1.238344,-1.278182 v -3.199013 -3.199016 l -2.974215,-1.231961 -2.974219,-1.231961 -4.513073,1.401544 -4.513073,1.401541 -0.59864,3.68291 -0.598639,3.682906 -0.90102,0.624709 -0.901025,0.624705 0.03967,5.028813 0.03967,5.028812 0.990643,0.991649 0.990644,0.991649 3.845722,1.408074 3.845722,1.40807 z m -0.967271,-4.217158 h -7.738185 l 0.01499,-0.725453 0.01499,-0.725457 0.870195,-1.374882 0.870194,-1.374883 5.644086,-0.211855 5.644093,-0.211856 1.209091,0.979727 1.20909,0.979731 v 1.332471 1.332471 z m -3.869095,-8.705456 h -0.967271 v -0.967272 -0.967272 h 0.967271 0.967272 v 0.967272 0.967272 z m 7.738185,0 h -0.967272 v -0.967272 -0.967272 h 0.967272 0.967272 v 0.967272 0.967272 z m -10.201881,-3.869091 h -0.438122 v -0.812012 -0.812012 l 2.463696,-1.122535 2.463696,-1.122535 h 0.438123 0.438122 v 0.812012 0.812012 l -2.463696,1.122535 -2.463693,1.122535 z m 11.410971,-0.01499 -1.692728,-0.01499 -1.422894,-0.899869 -1.422899,-0.899865 0.583307,-0.583307 0.583303,-0.583306 2.53232,0.635574 2.53232,0.63557 v 0.862412 0.862415 z m -18.729787,12.58936 h 0.857487 l 0.477609,-3.143637 0.477609,-3.143634 -0.823524,-1.576941 -0.823524,-1.576933 1.906609,-2.198341 1.906609,-2.198338 v -3.187851 -3.188023 l 5.37358,-1.693872 5.373579,-1.693873 4.05733,1.402627 4.057333,1.402623 0.29115,3.869094 0.291151,3.869091 1.474409,1.127174 1.474409,1.127174 -0.218729,2.74192 -0.218692,2.741916 0.145868,2.717086 0.145868,2.717085 0.876464,-0.541685 0.876465,-0.541685 -0.542914,-2.076111 -0.542917,-2.076112 2.660793,0.667815 2.660793,0.667818 1.358384,-1.12736 1.358388,-1.12736 v -1.123921 -1.12392 l -2.918877,-1.724227 -2.918881,-1.724223 0.557782,-0.902509 0.557782,-0.902512 h 1.877461 1.877461 V 47.3662 46.398928 h -2.844733 -2.844736 l -0.571542,-0.924779 -0.571546,-0.92478 2.413607,-1.581456 2.413612,-1.581455 -1.596865,-2.57195 -1.596865,-2.571945 -1.437573,-1.712729 -1.437573,-1.712726 -2.723713,2.609484 -2.723714,2.609483 -0.650852,-0.650852 -0.650852,-0.650848 1.136687,-2.494756 1.136687,-2.494753 -0.652315,-1.055465 -0.652314,-1.055465 -2.256988,2.820678 -2.256988,2.820674 -0.0048,-3.627272 -0.0048,-3.627275 h -1.523807 -1.52381 l 0.175407,2.660003 0.175407,2.66 -0.116877,0.967272 -0.116877,0.967272 -3.30214,-3.869091 -3.302136,-3.86909 -1.71821,1.683826 -1.718209,1.68383 3.289937,3.394355 3.28994,3.394354 -1.398839,-0.01682 -1.39884,-0.01682 -2.277888,-2.401474 -2.277888,-2.40147 -0.623931,0.05352 -0.62393,0.05352 -2.169409,2.751074 -2.169412,2.751071 -0.557848,1.453724 -0.557844,1.453721 2.969076,1.753876 2.969075,1.753875 v 0.572522 0.572522 l -4.352728,3.068086 -4.352729,3.068086 0.03071,1.71266 0.03071,1.712664 1.340872,1.769186 1.340872,1.769186 2.01382,-1.077765 2.013821,-1.077766 v 2.452217 2.452213 z"
       style="fill:url(#linearGradient869);stroke-width:0.242723" /></g><g
     id="g3056"
     transform="matrix(3.2179835,0,0,3.2179835,81.243586,-36.978346)"
     style="display:none;stroke-width:0.310754"
     sodipodi:insensitive="true"><path
       style="display:inline;fill:url(#linearGradient3113);stroke-width:0.310754"
       d="m -20.934786,28.155951 -0.7073,0.08176 -0.712455,-1.215713 -0.712456,-1.215713 -0.498474,-1.6016 -0.498473,-1.6016 0.0086,-1.365489 0.0086,-1.36549 0.454383,-1.322916 0.454383,-1.322917 -0.460665,-0.923126 -0.460665,-0.923127 -0.593715,-0.44784 -0.593715,-0.447841 0.18809,-0.18809 0.188091,-0.188091 0.361741,0.300219 0.361742,0.300219 0.300438,-0.659391 0.300439,-0.65939 h 0.481922 0.481922 l 0.3175,0.3175 0.3175,0.3175 v 0.481922 0.481923 l -0.661458,0.30138 -0.661458,0.301381 0.004,0.155968 0.0041,0.155967 0.226336,0.35716 0.226336,0.35716 1.135827,-0.822788 1.135827,-0.822789 1.327641,-0.394267 1.327642,-0.394267 h 1.247025 1.247025 l 1.722082,0.531897 1.722084,0.531897 1.303983,1.172394 1.3039843,1.172394 0.8093927,-0.492221 0.8093924,-0.492221 0.1847157,-0.298876 0.1847154,-0.298876 0.3733199,0.309827 0.3733196,0.309828 v 0.791815 0.791814 l -0.9313806,0.853112 -0.9313807,0.853111 0.5537092,0.703928 0.5537091,0.703927 h 0.3776715 0.3776715 v 0.674597 0.674598 l -0.3839442,0.742466 -0.3839443,0.742466 -1.3280233,0.571301 -1.3280232,0.5713 -1.185348,0.16247 -1.185347,0.16247 -0.07925,1.222603 -0.07925,1.222603 h -0.79375 -0.79375 l -0.79375,-1.216519 -0.79375,-1.216519 -1.5875,-0.305654 -1.5875,-0.305653 -0.581976,-0.158844 -0.581977,-0.158845 -0.07948,1.681017 -0.07948,1.681017 z m -0.08264,-0.478636 h 0.393066 v -1.882941 -1.882943 l 0.595312,0.189053 0.595313,0.189054 1.5875,0.365458 1.5875,0.365458 0.755911,0.0055 0.755912,0.0055 -0.14023,0.365433 -0.140229,0.365432 0.650627,0.957484 0.650627,0.957484 h 0.420999 0.421 l -0.123916,-1.289618 -0.123916,-1.289619 1.566655,-0.163748 1.5666549,-0.163748 1.2167364,-0.606778 1.2167367,-0.606777 0.2226961,-0.668088 0.2226958,-0.668088 -1.0637509,-1.15225 -1.0637512,-1.15225 v -0.213765 -0.213765 l 0.8052207,-0.416395 0.805221,-0.416396 0.2960915,-0.64985 0.2960915,-0.64985 -0.1419249,-0.141925 -0.1419249,-0.141925 -1.0255331,0.574142 -1.0255335,0.574142 -0.7221191,0.809108 -0.72212,0.809107 -0.185127,-0.185127 -0.185128,-0.185128 0.62101,-0.83996 0.6210094,-0.839961 -1.1189134,-0.992949 -1.118913,-0.992948 -1.288358,-0.427924 -1.288359,-0.427924 -1.275241,-0.123517 -1.275241,-0.123516 -1.27707,0.302197 -1.27707,0.302196 -0.142097,0.370301 -0.142098,0.3703 -0.300624,-0.0602 -0.300624,-0.0602 -0.587011,0.32496 -0.587011,0.32496 -0.687589,1.173282 -0.687589,1.173282 -0.148282,1.436714 -0.148282,1.436715 0.334864,1.420033 0.334863,1.420033 0.761098,1.521354 0.761098,1.521354 z m 7.007649,-2.116666 h -0.264583 v -0.264583 -0.264584 h 0.264583 0.264583 v 0.264584 0.264583 z m -2.116667,-1.058333 h -0.264583 v -0.264584 -0.264583 h 0.264583 0.264584 v 0.264583 0.264584 z m 3.175,0 h -0.264583 v -0.264584 -0.264583 h 0.264583 0.264584 v 0.264583 0.264584 z m -8.466666,-0.529167 h -0.352778 l 0.176389,-0.176389 0.176389,-0.176389 0.176389,0.176389 0.176389,0.176389 z m -1.20624,-0.264583 h -0.116677 v -0.264584 -0.264583 h 0.280198 0.280199 l -0.163522,0.264583 -0.163521,0.264584 z m 2.264573,-0.264584 h -0.264583 v -0.264583 -0.264583 h 0.264583 0.264583 v 0.264583 0.264583 z m 4.233333,0 h -0.264583 v -0.264583 -0.264583 h 0.264583 0.264584 v 0.264583 0.264583 z m 3.175,0 h -0.264583 v -0.264583 -0.264583 h 0.264583 0.264584 v 0.264583 0.264583 z m -7.408333,-1.058333 h -0.264583 v -0.264583 -0.264584 h 0.264583 0.264583 v 0.264584 0.264583 z m 4.233333,0 h -0.264583 v -0.264583 -0.264584 h 0.264583 0.264584 v 0.264584 0.264583 z m 3.175,0 h -0.264583 v -0.264583 -0.264584 h 0.264583 0.264584 v 0.264584 0.264583 z m -7.408333,-1.058333 h -0.264583 v -0.264584 -0.264583 h 0.264583 0.264583 v 0.264583 0.264584 z m 4.233333,0 h -0.264583 v -0.264584 -0.264583 h 0.264583 0.264584 v 0.264583 0.264584 z m 3.175,0 h -0.264583 v -0.264584 -0.264583 h 0.264583 0.264584 v 0.264583 0.264584 z m -7.408333,-1.058334 h -0.264583 v -0.264583 -0.264583 h 0.264583 0.264583 v 0.264583 0.264583 z m 1.058333,0 h -0.264583 v -0.264583 -0.264583 h 0.264583 0.264584 v 0.264583 0.264583 z m 1.058334,0 h -0.264584 v -0.264583 -0.264583 h 0.264584 0.264583 v 0.264583 0.264583 z m 1.058333,0 h -0.264583 v -0.264583 -0.264583 h 0.264583 0.264583 v 0.264583 0.264583 z m 1.058333,0 h -0.264583 v -0.264583 -0.264583 h 0.264583 0.264584 v 0.264583 0.264583 z m 1.058334,0 h -0.264584 v -0.264583 -0.264583 h 0.264584 0.264583 v 0.264583 0.264583 z m 1.058333,0 h -0.264583 v -0.264583 -0.264583 h 0.264583 0.264583 v 0.264583 0.264583 z m 1.058333,0 h -0.264583 v -0.264583 -0.264583 h 0.264583 0.264584 v 0.264583 0.264583 z m -7.408333,-1.058333 h -0.264583 v -0.264583 -0.264584 h 0.264583 0.264583 v 0.264584 0.264583 z m 4.233333,0 h -0.264583 v -0.264583 -0.264584 h 0.264583 0.264584 v 0.264584 0.264583 z m 3.351389,-0.08819 -0.176389,0.176388 V 18.94607 18.593292 l 0.176389,0.176389 0.176389,0.176389 z m -7.584722,-0.970139 h -0.264583 v -0.264584 -0.264583 h 0.264583 0.264583 v 0.264583 0.264584 z m 4.233333,0 h -0.264583 v -0.264584 -0.264583 h 0.264583 0.264584 v 0.264583 0.264584 z m 3.439584,0 h -0.264584 v -0.264584 -0.264583 h 0.264584 0.264583 v 0.264583 0.264584 z m -7.672917,-1.058334 H -20.62436 V 16.829403 16.56482 h 0.264583 0.264583 v 0.264583 0.264583 z m 4.233333,0 h -0.264583 V 16.829403 16.56482 h 0.264583 0.264584 v 0.264583 0.264583 z m 3.96875,0 h -0.264583 V 16.813788 16.53359 l 0.264583,0.163521 0.264584,0.163522 v 0.116677 0.116676 z m -3.96875,-1.058333 h -0.264583 V 15.77107 15.506487 h 0.264583 0.264584 v 0.264583 0.264583 z m -7.209895,-1.062385 0.198437,-0.0041 0.394664,-0.249515 0.394663,-0.249514 -0.339535,-0.339535 -0.339535,-0.339535 -0.249514,0.394664 -0.249515,0.394663 -0.0041,0.198437 -0.0041,0.198438 0.198438,-0.0041 z"
       id="path3058"
       inkscape:connector-curvature="0" /></g><g
     id="g3073"
     style="display:none"
     transform="translate(-0.08028549,9.1999816e-5)"
     sodipodi:insensitive="true"
     inkscape:label="config"><path
       style="display:inline;fill:url(#linearGradient3091);stroke-width:1"
       d="M 19.88641,59.820595 16.793096,59.999908 16.461711,59.463711 16.130323,58.927515 15.730805,56.429066 15.331287,53.930617 14.000008,53.596485 12.66873,53.262356 10.36363,54.82664 8.0585291,56.390924 5.6773415,54.009736 3.2961563,51.628551 4.9525094,49.456959 6.6088626,47.285368 6.2578012,45.886626 5.9067397,44.487889 3.0544588,43.966791 0.20217998,43.445694 V 40.154711 36.863728 L 3.0638447,36.311007 5.9255092,35.758286 6.2640245,34.409541 6.6025374,33.060792 5.049966,30.775981 3.4973968,28.491167 5.856147,26.132416 l 2.3587501,-2.358752 2.1715919,1.656356 2.171592,1.656352 1.361349,-0.341677 1.361348,-0.341676 0.552721,-2.861667 0.552721,-2.861664 h 3.277792 3.27779 l 0.531713,2.69734 0.531712,2.69734 0.686065,0.440378 0.686063,0.440378 0.899113,-0.01246 0.899114,-0.01246 1.772801,-1.448846 1.772803,-1.448844 -1.081684,-2.268314 -1.081685,-2.268311 1.856371,-1.549768 1.856368,-1.549764 V 15.58455 14.772741 l -1.835793,-1.542176 -1.835792,-1.542174 0.9564,-2.2757296 0.956401,-2.2757316 2.827472,0.1777947 2.827471,0.1777956 L 35.988921,4.6650485 35.811125,1.8375768 38.010204,0.9187424 40.209286,-9.1999632e-5 h 0.396968 0.396969 L 42.065463,1.7981347 43.1277,3.5963614 h 1.149537 1.149539 L 46.356674,1.7981347 47.286573,-9.1999632e-5 h 0.603269 0.603269 L 50.570399,0.86785501 52.64769,1.735802 l -0.148456,2.8783591 -0.148458,2.878359 2.856717,-0.2002689 2.856717,-0.200269 0.947089,2.2667044 0.947092,2.2667014 -1.861132,1.530009 -1.861133,1.530012 0.0055,0.919727 0.0055,0.91973 1.798226,1.062239 1.798227,1.062239 v 0.492317 0.492318 l -0.905022,2.166026 -0.905024,2.166026 -2.841264,-0.144742 -2.841282,-0.144741 0.196553,2.81963 0.196554,2.819631 -2.286518,0.955367 -2.286517,0.955371 -1.506501,-1.832325 -1.506498,-1.832325 -1.033572,0.0055 -1.033575,0.0055 -0.945671,1.828726 -0.945671,1.828729 -1.317505,-0.406142 -1.317505,-0.406142 -1.513205,-0.768671 -1.513203,-0.768672 -1.382504,2.109029 -1.382502,2.10903 0.333747,1.329754 0.333746,1.329752 2.861666,0.552721 2.861665,0.552721 v 3.290983 3.290983 l -2.852281,0.521098 -2.852281,0.521097 -0.351061,1.398738 -0.351062,1.398741 1.656353,2.171591 1.656356,2.171593 -2.358753,2.35875 -2.35875,2.35875 -2.284813,-1.552569 -2.284812,-1.552572 -1.348748,0.338513 -1.348746,0.338516 -0.552721,2.861664 -0.552722,2.861665 z m -0.227179,-2.27725 h 1.094296 l 0.363835,-0.948138 0.363834,-0.948139 V 54.17627 52.705471 l 2.740823,-1.174855 2.740825,-1.174854 1.941221,1.480641 1.941222,1.480642 0.99712,-0.997121 0.997121,-0.99712 -1.568138,-2.055937 -1.568138,-2.055937 1.275861,-2.626109 1.275864,-2.626108 h 1.457287 1.45729 l 0.948138,-0.363835 0.948136,-0.363836 V 40.160486 39.089928 L 36.117692,38.726093 35.169554,38.36226 h -1.437318 -1.437314 l -1.252554,-2.455211 -1.252554,-2.455207 1.494043,-2.257651 1.494043,-2.257651 -0.966305,-0.966308 -0.966308,-0.966304 -1.941222,1.480639 -1.941221,1.480642 -2.740825,-1.174853 -2.740823,-1.174855 v -1.470799 -1.4708 l -0.363834,-0.948139 -0.363835,-0.948136 h -1.123266 -1.12327 l -0.287787,1.348669 -0.287786,1.34867 -0.173196,1.141888 -0.173196,1.141887 -2.484122,1.054406 -2.48412,1.054405 -2.256226,-1.533145 -2.2562254,-1.533145 -0.7750352,1.059926 -0.7750374,1.059926 1.40418,2.066438 1.4041823,2.066437 -0.9298152,2.367078 -0.9298152,2.367078 -1.5524808,0.342768 -1.5524831,0.342769 -1.048966,0.284387 -1.0489659,0.284384 v 1.147006 1.147005 l 1.3486712,0.287787 1.3486689,0.287786 1.1418893,0.173196 1.141887,0.173196 1.0544031,2.484122 1.0544055,2.48412 -1.4213208,2.091664 -1.4213228,2.091665 1.0232572,0.90951 1.023255,0.909509 1.9878473,-1.375442 1.987848,-1.375445 2.370515,0.931166 2.370515,0.931165 0.34277,1.552481 0.342769,1.552483 0.284384,1.048966 0.284386,1.048966 z M 19.562884,47.329392 17.585039,47.3054 15.944198,46.41509 14.303358,45.524781 13.39671,43.771517 12.490062,42.018251 v -1.857766 -1.857761 l 0.90926,-1.758314 0.909259,-1.758313 1.758315,-0.909261 1.758314,-0.909258 h 1.857759 1.857761 l 1.758314,0.909258 1.758312,0.909261 0.909261,1.758313 0.909258,1.758314 v 1.857761 1.857759 l -0.909258,1.758314 -0.909261,1.758315 -1.758312,0.909259 -1.758314,0.90926 z m 0.03609,-2.373636 h 2.104668 l 1.387302,-1.303303 1.387302,-1.303303 v -2.104664 -2.104668 l -1.303303,-1.387302 -1.303305,-1.387302 h -2.104664 -2.104666 l -1.387302,1.303303 -1.387302,1.303305 v 2.104664 2.104666 l 1.303303,1.387302 1.303303,1.387302 z m 16.37455,-17.534667 0.474544,-0.747303 0.0093,-1.313296 0.0093,-1.313296 -0.614035,-0.379493 -0.614034,-0.379493 -1.84249,0.404678 -1.842487,0.404679 1.9728,2.035413 1.972801,2.035414 z m 3.576028,0.751218 h 0.485691 l 0.941051,-1.436226 0.941052,-1.436227 2.13925,-0.249744 2.139252,-0.249747 0.816448,0.816448 0.816446,0.816448 0.533707,0.95368 0.533707,0.953679 0.696729,-0.430602 0.696728,-0.430602 -0.358145,-1.90908 -0.358145,-1.909081 1.56815,-1.4732 1.568151,-1.473201 2.068352,0.178203 2.068352,0.178203 V 20.439735 19.808218 L 55.347809,18.826349 53.849288,17.84448 V 15.5296 13.214719 l 1.498521,-0.981869 1.498522,-0.981869 V 10.393645 9.536307 L 54.714881,9.9361697 52.583433,10.336031 51.084268,8.9276422 49.585106,7.5192511 49.762878,5.4559129 49.940651,3.3925748 49.235837,3.1576373 48.531024,2.9226998 47.524769,4.4584364 46.518515,5.994175 H 44.239811 41.961107 L 40.802936,4.4042594 39.644762,2.8143438 38.974347,3.2286825 38.303932,3.643024 l 0.360184,1.8009267 0.360187,1.8009277 -1.415507,1.5067379 -1.415508,1.5067407 -2.063338,-0.177773 -2.06334,-0.1777712 -0.219865,0.6595742 -0.219865,0.659575 1.520658,0.996375 1.520659,0.996373 v 2.333823 2.333823 l -1.589916,1.158173 -1.589917,1.158174 0.402082,0.650581 0.40208,0.650581 1.937096,-0.297125 1.937096,-0.297125 1.609827,1.523925 1.609825,1.523922 -0.506077,1.764594 -0.506079,1.764595 0.344822,0.344822 0.344825,0.344825 z m 4.589102,-6.614738 -1.378435,-0.02129 -1.432546,-0.793999 -1.432544,-0.793997 -0.793997,-1.432544 -0.794,-1.432546 -0.02129,-1.994187 -0.02129,-1.994189 1.752117,-1.752117 1.75212,-1.7521194 h 2.489851 2.489854 l 1.752117,1.7521194 1.75212,1.752117 v 2.183447 2.183445 l -0.617178,1.153209 -0.617179,1.153207 -1.75069,0.905318 -1.750692,0.905317 z m 0.222742,-2.376396 h 1.301474 l 1.096161,-0.992014 1.096163,-0.992014 V 15.688868 14.180592 L 46.86318,13.084429 45.871166,11.988266 h -1.508277 -1.508274 l -1.096166,0.992014 -1.096162,0.992014 v 1.405621 1.405623 l 1.198819,1.198816 1.198816,1.198819 z"
       id="path3075"
       inkscape:connector-curvature="0" /></g><g
     id="g6"
     transform="matrix(-0.02857987,0,0,0.02858604,-18.874326,-26.982181)"
     style="display:none;stroke-width:1.10631"
     inkscape:label="gopher"><path
       fill-rule="evenodd"
       clip-rule="evenodd"
       fill="#6ad7e5"
       stroke="#000000"
       stroke-width="19.6288"
       stroke-linecap="round"
       d="m -1008.4371,1299.4777 c 149.25191,-225.6196 244.13411,-161.0989 281.74722,-57.4195 25.89002,71.3648 -4.1241,137.6122 -169.10608,152.5522 z"
       id="path47"
       style="fill:url(#linearGradient9);stroke-width:34.9859;stroke-dasharray:none"
       sodipodi:nodetypes="cscc" /><path
       fill-rule="evenodd"
       clip-rule="evenodd"
       fill="#6ad7e5"
       stroke="#000000"
       stroke-width="19.6288"
       stroke-linecap="round"
       d="m -2505.6728,1485.3674 c -268.5521,-32.5599 -253.2904,-146.2816 -177.3883,-226.3005 52.245,-55.0789 124.9209,-57.8696 212.0842,83.002 z"
       id="path3"
       style="fill:url(#linearGradient10);stroke-width:34.9859;stroke-dasharray:none"
       sodipodi:nodetypes="cscc" /><g
       id="g46"
       transform="matrix(7.7301001,-20.973786,20.973786,7.7301001,-4795.3761,-401.95769)"
       style="stroke-width:1.10631"><path
         fill-rule="evenodd"
         clip-rule="evenodd"
         fill="#f6d2a2"
         stroke="#231f20"
         stroke-width="3"
         stroke-linecap="round"
         d="m -39.927365,121.63657 c 0.216682,-1.79365 2.459058,-3.02105 3.795636,-3.38605 0.340485,-0.40858 -1.310203,-1.65169 -2.564986,-1.97612 -1.30123,-0.33644 -2.981111,-0.17865 -3.108793,0.33208 0.517231,1.31247 1.613515,2.2469 1.157903,4.89643 z"
         id="path46"
         style="opacity:1;mix-blend-mode:normal;fill:#000000;fill-opacity:0.224568;stroke:none;stroke-width:1.56516;stroke-dasharray:none;filter:url(#filter46)"
         sodipodi:nodetypes="ccsccc" /><path
         fill-rule="evenodd"
         clip-rule="evenodd"
         fill="#f6d2a2"
         stroke="#231f20"
         stroke-width="3"
         stroke-linecap="round"
         d="m -40.052376,122.68476 c 0.216682,-1.79365 2.252097,-4.19693 3.588675,-4.56193 -1.83327,-0.12868 -3.271491,2.10118 -3.271491,2.10118 0,0 -0.3419,-2.47842 -1.911256,-3.5503 0.517231,1.31247 1.23314,3.10748 0.777528,5.75701 z"
         id="path45"
         style="opacity:1;fill:#0b0b0b;fill-opacity:1;stroke:none;stroke-width:0.87813;stroke-dasharray:none"
         sodipodi:nodetypes="cccccc" /></g><g
       id="g49"
       transform="matrix(-7.6851538,-20.990297,-20.990297,7.6851538,1359.6807,-456.10376)"
       style="stroke-width:1.10631"><path
         fill-rule="evenodd"
         clip-rule="evenodd"
         fill="#f6d2a2"
         stroke="#231f20"
         stroke-width="3"
         stroke-linecap="round"
         d="m -39.927365,121.63657 c 0.216682,-1.79365 2.459058,-3.02105 3.795636,-3.38605 0.340485,-0.40858 -1.310203,-1.65169 -2.564986,-1.97612 -1.30123,-0.33644 -2.981111,-0.17865 -3.108793,0.33208 0.517231,1.31247 1.613515,2.2469 1.157903,4.89643 z"
         id="path48"
         style="opacity:1;mix-blend-mode:normal;fill:#000000;fill-opacity:0.224568;stroke:none;stroke-width:0.87813;stroke-dasharray:none;filter:url(#filter46)"
         sodipodi:nodetypes="ccsccc" /><path
         fill-rule="evenodd"
         clip-rule="evenodd"
         fill="#f6d2a2"
         stroke="#231f20"
         stroke-width="3"
         stroke-linecap="round"
         d="m -40.052376,122.68476 c 0.216682,-1.79365 2.252097,-4.19693 3.588675,-4.56193 -1.83327,-0.12868 -3.271491,2.10118 -3.271491,2.10118 0,0 -0.3419,-2.47842 -1.911256,-3.5503 0.517231,1.31247 1.23314,3.10748 0.777528,5.75701 z"
         id="path49"
         style="opacity:1;fill:#0b0b0b;fill-opacity:1;stroke:none;stroke-width:0.87813;stroke-dasharray:none"
         sodipodi:nodetypes="cccccc" /></g><path
       fill-rule="evenodd"
       clip-rule="evenodd"
       fill="#6ad7e5"
       stroke="#000000"
       stroke-width="3.31892"
       stroke-linecap="round"
       d="m 195.512,13.124 c 60.365,0 116.953,8.633 146.452,66.629 26.478,65.006 32.49943,95.29849 24.26244,142.90931 -4.76562,27.54588 -20.70801,53.9317 -40.99982,73.1644 -22.96962,21.77074 -54.21564,35.43332 -85.19499,41.91678 -41.93471,8.77624 -89.3361,11.85259 -128.40291,-5.73224 C 79.463267,317.53288 50.238202,289.08705 38.009714,256.00652 19.958862,207.17532 25.977,164.481 47.584,100.122 69.999,33.359 130.451,18.271 195.512,13.124"
       id="path13"
       style="display:inline;fill:url(#linearGradient7);stroke-width:5.91556;stroke-dasharray:none"
       sodipodi:nodetypes="ccaaaaacc"
       transform="matrix(5.9142167,0,0,5.9142167,-2875.2333,934.91298)" /><g
       id="g44"
       transform="matrix(-22.614754,0,0,22.619392,-388.50101,-1067.3688)"
       style="display:inline;stroke-width:1.09339"
       inkscape:export-filename="..\..\..\dev\projetos\di\docs\go-path\g44.png"
       inkscape:export-xdpi="25.4"
       inkscape:export-ydpi="25.4"
       inkscape:label="eye-r"><circle
         style="fill:#ffffff;fill-opacity:1;stroke:#000000;stroke-width:1.54688;stroke-linejoin:bevel;stroke-dasharray:none;stroke-opacity:1"
         id="path36"
         cx="78.068497"
         cy="-131.39601"
         r="18.100079"
         transform="scale(1,-1)" /><g
         id="g3"
         inkscape:label="pupil"><g
           id="g5"
           inkscape:label="inner"><circle
             style="display:inline;fill:#000000;fill-opacity:1;stroke:none;stroke-width:1.15716;stroke-linejoin:bevel;stroke-dasharray:none;stroke-opacity:1"
             id="circle37"
             cx="83.411095"
             cy="-131.43298"
             r="3.4646804"
             transform="scale(1,-1)"
             inkscape:export-filename="..\..\..\dev\projetos\di\docs\go-path\circle37.png"
             inkscape:export-xdpi="25.4"
             inkscape:export-ydpi="25.4" /><ellipse
             style="display:inline;fill:#ffffff;fill-opacity:1;stroke:none;stroke-width:1.15716;stroke-linejoin:bevel;stroke-dasharray:none;stroke-opacity:1"
             id="circle38"
             cx="82.561729"
             cy="-129.77443"
             transform="scale(1,-1)"
             rx="1.0089374"
             ry="0.77911043" /></g></g><path
         id="circle49"
         style="fill:#000000;fill-opacity:0.134357;stroke:none;stroke-width:1.15716;stroke-linejoin:bevel"
         transform="scale(1,-1)"
         d="m 96.168575,-131.39601 c 10e-7,9.9964 -5.07012,15.40358 -14.344241,17.66671 0,0 12.445828,-5.93969 11.356279,-20.29429 -0.756575,-9.96772 -11.019217,-14.99098 -11.019217,-14.99098 6.336865,2.7928 14.00718,7.62216 14.007179,17.61856 z"
         sodipodi:nodetypes="sssss" /></g><g
       id="g43"
       transform="matrix(-22.614754,0,0,22.619392,-466.24445,-1119.0328)"
       style="display:inline;stroke-width:1.09339"
       inkscape:export-filename="..\..\..\dev\projetos\di\docs\go-path\g43.png"
       inkscape:export-xdpi="25.4"
       inkscape:export-ydpi="25.4"
       inkscape:label="eye-l"><circle
         style="fill:#ffffff;fill-opacity:1;stroke:#000000;stroke-width:1.54688;stroke-linejoin:bevel;stroke-dasharray:none;stroke-opacity:1"
         id="circle39"
         cx="31.504141"
         cy="-130.39047"
         transform="scale(1,-1)"
         r="15.307277" /><g
         id="g2"
         inkscape:label="pupil"><g
           id="g4"
           inkscape:label="inner"><circle
             style="display:inline;fill:#000000;fill-opacity:1;stroke:none;stroke-width:1.15716;stroke-linejoin:bevel;stroke-dasharray:none;stroke-opacity:1"
             id="circle40"
             cx="36.048019"
             cy="-130.50783"
             r="3.1076729"
             transform="scale(1,-1)"
             inkscape:export-filename="..\..\..\dev\projetos\di\docs\go-path\eye-left-dot.png"
             inkscape:export-xdpi="25.4"
             inkscape:export-ydpi="25.4" /><ellipse
             style="display:inline;fill:#ffffff;fill-opacity:1;stroke:none;stroke-width:1.15716;stroke-linejoin:bevel;stroke-dasharray:none;stroke-opacity:1"
             id="ellipse40"
             cx="35.286171"
             cy="-129.02019"
             transform="scale(1,-1)"
             rx="0.90497452"
             ry="0.69882941" /></g></g><path
         id="path50"
         style="fill:#000000;fill-opacity:0.134357;stroke:none;stroke-width:1.15716;stroke-linejoin:bevel"
         d="m 46.776989,130.53995 c 10e-7,-8.74139 -4.797804,-13.46971 -13.573813,-15.44871 0,0 11.777364,5.19398 10.746334,17.7464 -0.715939,8.7163 -10.427376,13.10891 -10.427376,13.10891 5.996513,-2.44217 13.254856,-6.66522 13.254855,-15.4066 z"
         sodipodi:nodetypes="sssss" /></g><g
       id="g45"
       transform="matrix(-22.352945,0,0,22.352945,-423.42765,-1057.965)"
       style="stroke-width:1.10631"><path
         fill-rule="evenodd"
         clip-rule="evenodd"
         fill="#ffffff"
         stroke="#000000"
         stroke-width="0.79375"
         stroke-linecap="round"
         d="m 56.615347,145.62448 c 0.0098,1.35296 0.371802,3.59882 -0.263552,4.91899 -0.444005,0.65277 -0.953991,0.83138 -1.704829,1.09516 -0.393037,-0.0592 -1.194205,-0.0684 -1.550415,-0.28222 -0.170185,-1.7873 0.180368,-4.64425 0.247678,-6.28775 z"
         id="path42"
         style="fill:#ffffff;fill-opacity:1;stroke-width:1.56516;stroke-dasharray:none"
         sodipodi:nodetypes="cccccc" /><path
         fill-rule="evenodd"
         clip-rule="evenodd"
         fill="#ffffff"
         stroke="#000000"
         stroke-width="0.79375"
         stroke-linecap="round"
         d="m 50.246175,145.89369 c -0.0098,1.35296 -0.07755,2.66385 0.268392,4.37558 0.444005,0.65277 1.005064,1.13963 1.755902,1.40341 0.393037,-0.0592 0.755248,-0.14005 1.111458,-0.35385 0.170185,-1.7873 -0.08734,-4.58174 -0.15465,-6.22524 z"
         id="path41"
         style="fill:#ffffff;fill-opacity:1;stroke-width:1.56516;stroke-dasharray:none"
         sodipodi:nodetypes="cccccc" /><path
         fill-rule="evenodd"
         clip-rule="evenodd"
         fill="#f6d2a2"
         stroke="#231f20"
         stroke-width="3"
         stroke-linecap="round"
         d="m 56.235626,141.21188 c 4.362731,0.56588 4.777992,3.13261 4.043715,5.34614 -1.332143,2.01345 -3.16253,0.12715 -6.667923,0.34422 -4.937051,-0.0175 -5.857568,1.79754 -6.859233,-0.84738 -0.838814,-3.97589 2.197335,-4.2122 3.641418,-4.87949 z"
         id="path40"
         style="opacity:1;fill:#f6d2a2;fill-opacity:1;stroke-width:1.56516;stroke-dasharray:none"
         sodipodi:nodetypes="cccccc" /><path
         fill-rule="evenodd"
         clip-rule="evenodd"
         fill="#f6d2a2"
         stroke="#231f20"
         stroke-width="3"
         stroke-linecap="round"
         d="m 54.221365,142.99719 c 2.136829,-0.30003 2.330625,-1.70662 2.138385,-2.55314 -0.512416,-0.98408 -1.865968,-0.43644 -3.324025,-0.41487 -1.138635,0.0168 -2.35866,-0.62963 -2.852574,0.61565 -0.329348,1.59503 0.541784,1.82666 1.915939,2.28528 z"
         id="path43"
         style="opacity:1;fill:#2f2e2b;fill-opacity:1;stroke-width:1.56516;stroke-dasharray:none"
         sodipodi:nodetypes="ccsccc" /><path
         id="path51"
         style="fill:#000000;fill-opacity:0.134357;stroke:none;stroke-width:1.17084;stroke-linejoin:bevel"
         d="m 59.881474,147.02516 c 1.260668,-2.71775 -1.09888,-6.02869 -1.040326,-4.84857 0.05807,1.1704 -0.746856,3.52937 -2.712182,3.29751 -2.7366,-0.32285 -8.937812,0.49847 -8.17338,1.7244 0.491443,0.78815 2.13797,-0.49337 5.419765,-0.40114 2.775124,0.078 6.095651,1.11273 6.506123,0.22783 z"
         sodipodi:nodetypes="sssssss" /></g></g><path
     id="path5772"
     d="m 25.340414,0 h 9.31917 c 1.549313,0 2.795752,1.2464386 2.795752,2.7957517 V 22.366012 h 10.216141 c 2.073518,0 3.110276,2.504527 1.642506,3.972298 L 31.595907,44.068031 c -0.873671,0.873676 -2.306494,0.873676 -3.180167,0 L 10.674366,26.33831 c -1.4677686,-1.467771 -0.43101,-3.972298 1.642505,-3.972298 H 22.544662 V 2.7957517 C 22.544662,1.2464386 23.791101,0 25.340414,0 Z m 34.480937,43.800107 v 13.046842 c 0,1.549309 -1.246443,2.795751 -2.795752,2.795751 H 2.9744009 c -1.5493115,0 -2.79575155,-1.246442 -2.79575155,-2.795751 V 43.800107 c 0,-1.549313 1.24644005,-2.795751 2.79575155,-2.795751 H 20.063432 l 5.707993,5.707994 c 2.341442,2.34144 6.115707,2.34144 8.457147,0 l 5.707994,-5.707994 h 17.089033 c 1.549309,0 2.795752,1.246438 2.795752,2.795751 z m -14.44472,10.25109 c 0,-1.281387 -1.048407,-2.329793 -2.329792,-2.329793 -1.281385,0 -2.329792,1.048406 -2.329792,2.329793 0,1.281385 1.048407,2.329791 2.329792,2.329791 1.281385,0 2.329792,-1.048406 2.329792,-2.329791 z m 7.455341,0 c 0,-1.281387 -1.048407,-2.329793 -2.329794,-2.329793 -1.281388,0 -2.329795,1.048406 -2.329795,2.329793 0,1.281385 1.048407,2.329791 2.329795,2.329791 1.281387,0 2.329794,-1.048406 2.329794,-2.329791 z"
     inkscape:connector-curvature="0"
     style="display:none;fill:url(#linearGradient5789);fill-opacity:1;stroke-width:0.263422;stroke-dasharray:none" /><path
     id="path120"
     style="display:none;fill:url(#linearGradient159);stroke-width:0.501893"
     d="M 21.622965,54.783091 C 20.811705,54.587779 20.682383,54.565455 15.514511,53.728639 8.6559033,52.618055 8.2170277,52.543307 8.1082476,52.467231 8.0483503,52.425325 7.625336,51.375212 7.1682166,50.133599 6.7110925,48.891991 6.1074761,47.278561 5.8268525,46.548201 5.5462242,45.817841 4.2291064,42.322081 2.8999182,38.779841 1.5547999,35.195141 0.35841304,32.204276 0.20174712,32.034651 -0.01661126,31.798235 -0.0481352,31.679135 0.06115695,31.503483 c 0.13196782,-0.2121 3.11314115,-2.395691 4.66396065,-3.416165 0.3834408,-0.252311 0.6971589,-0.508729 0.6971589,-0.569809 0,-0.06109 -0.2146691,-0.606432 -0.4770441,-1.211886 L 4.4681835,25.204801 4.6874054,24.630776 c 0.3393199,-0.888491 1.5119925,-1.854118 3.5235143,-2.901398 2.3937943,-1.24631 5.1576983,-2.171721 7.1707963,-2.400936 1.49275,-0.169961 1.46641,-0.155843 1.251284,-0.670705 -0.456974,-1.093695 -0.03117,-1.804019 1.886089,-3.146267 1.55371,-1.087742 4.023229,-2.116367 6.657258,-2.772948 1.354921,-0.337739 1.982874,-0.424084 3.152641,-0.43349 1.734672,-0.01396 2.370295,0.208341 2.67397,0.935132 0.101548,0.243042 0.211398,0.441892 0.244116,0.441892 0.03272,0 0.543666,-0.329694 1.135448,-0.732648 4.072218,-2.772869 11.12387,-4.403032 12.841554,-2.968642 0.266133,0.222238 0.492743,0.682318 0.818994,1.662776 0.24808,0.745532 0.495388,1.427253 0.549577,1.514934 0.07605,0.123044 0.787897,0.127867 3.12055,0.02113 1.662119,-0.07606 3.098311,-0.109011 3.191542,-0.07324 0.216743,0.08317 0.09431,-0.241787 1.917949,5.09063 2.808462,8.212095 4.47304,13.061174 4.828516,14.065954 C 59.843043,32.805203 60,33.343312 60,33.458763 c 0,0.11545 -2.205036,2.414346 -4.900082,5.108652 -3.956748,3.955665 -4.947369,4.880212 -5.145707,4.802504 -0.244573,-0.09582 -1.839323,-0.281332 -5.756517,-0.669636 -1.13206,-0.112218 -2.865,-0.291826 -3.850984,-0.39912 -5.676706,-0.61776 -5.979839,-0.635437 -6.219413,-0.362693 -0.121563,0.138397 -0.549688,0.630423 -0.951383,1.093389 -0.401695,0.462966 -0.999264,1.148873 -1.327924,1.524244 -0.738786,0.843782 -0.865192,0.98901 -3.640952,4.183177 -1.237648,1.424197 -2.442417,2.798601 -2.677273,3.054225 -0.234855,0.255629 -0.950751,1.062342 -1.590885,1.792701 -0.640129,0.730359 -1.258753,1.338001 -1.374715,1.350318 -0.115962,0.01234 -0.539505,-0.05673 -0.9412,-0.153433 z m 2.736697,-3.131742 c 0.795445,-0.918098 2.073711,-2.377101 2.840589,-3.242219 0.766877,-0.865123 1.603026,-1.817013 1.858113,-2.115313 0.255087,-0.298306 1.28589,-1.483806 2.29067,-2.634452 1.004784,-1.150644 1.826498,-2.136628 1.826032,-2.191074 -4.67e-4,-0.05445 -0.27302,-0.875833 -0.60567,-1.825299 -0.33265,-0.949466 -0.894975,-2.592774 -1.249608,-3.651793 -0.354638,-1.05902 -1.486366,-4.399047 -2.514955,-7.42228 -1.028595,-3.023227 -1.870169,-5.518067 -1.870169,-5.544085 0,-0.228316 -0.572755,0.158021 -1.925487,1.298779 -0.876431,0.739097 -2.161201,1.8096 -2.855043,2.378897 -0.693837,0.569303 -2.127996,1.761474 -3.18702,2.649267 -1.05902,0.887798 -2.131394,1.77381 -2.383059,1.968922 -0.251664,0.195105 -0.669961,0.54505 -0.92955,0.777642 l -0.471976,0.422906 0.981999,2.89691 c 1.821877,5.374572 2.677825,7.792536 4.410068,12.457972 1.940168,5.225439 2.071353,5.548648 2.227456,5.487854 0.06124,-0.02384 0.762165,-0.794537 1.55761,-1.712634 z M 54.584801,37.7507 c 2.322665,-2.318891 4.253763,-4.312847 4.291325,-4.431012 0.03754,-0.118166 10e-4,-0.38707 -0.08091,-0.597564 -0.19739,-0.506309 -2.124934,-6.08227 -2.77183,-8.018292 -0.280643,-0.839908 -1.119236,-3.289934 -1.863538,-5.444491 -0.744297,-2.154561 -1.410746,-4.111587 -1.480991,-4.348958 -0.07024,-0.237365 -0.173555,-0.431572 -0.229571,-0.431572 -0.112986,0 -4.40528,3.436717 -8.896364,7.123071 l -0.346311,0.284257 0.421399,1.242858 c 0.231764,0.683568 0.730862,2.109326 1.109098,3.168345 0.378238,1.059025 0.796013,2.254157 0.928392,2.655852 0.13238,0.4017 0.609479,1.776099 1.060224,3.054229 1.568928,4.44887 2.408374,6.848651 2.938006,8.399124 0.293146,0.858172 0.57013,1.560315 0.615522,1.560315 0.04537,0 1.982888,-1.897276 4.305549,-4.216162 z M 20.2004,27.073625 c 3.083043,-2.567514 5.62367,-4.713423 5.645844,-4.768686 0.02218,-0.05526 -0.42547,0.04743 -0.994762,0.228226 -1.282673,0.407321 -2.696942,0.709953 -3.317804,0.709953 -0.393674,0 -0.455628,0.03784 -0.380264,0.232386 0.15516,0.400485 0.242199,1.456303 0.150252,1.822644 -0.23737,0.945767 -2.152719,2.400379 -4.533704,3.443121 -3.54352,1.551869 -6.349945,2.16188 -8.6334026,1.876584 C 7.4300095,30.529575 7.3086163,30.462155 6.6600802,29.79789 6.2714344,29.399809 5.9534501,28.990675 5.9534501,28.888695 c 0,-0.405042 -0.2967541,-0.308744 -1.3129566,0.426052 -0.5835513,0.421952 -1.3933301,0.994858 -1.7995121,1.273122 -0.406182,0.278265 -0.7385156,0.547169 -0.7385156,0.597564 0,0.05039 0.7021428,0.112374 1.5603146,0.13773 0.8581718,0.02534 3.2633735,0.120936 5.344894,0.212411 2.0815266,0.09147 4.1901746,0.175306 4.6858896,0.186293 l 0.901304,0.01998 z m -2.782851,0.450138 c 1.39066,-0.895849 3.143074,-2.500627 3.143074,-2.878271 0,-0.198072 -0.643572,-2.093943 -0.788679,-2.323343 -0.09748,-0.154106 -0.225691,-0.09564 -0.669455,0.305271 -0.584801,0.528333 -1.90115,1.412453 -2.102977,1.412453 -0.06669,0 -0.274078,0.120208 -0.460858,0.267127 -0.615456,0.484116 -1.009337,3.048523 -0.540283,3.517577 0.269341,0.269341 0.66395,0.185696 1.419178,-0.300814 z M 9.8263623,25.17265 c 3.4856777,-0.607853 7.5689077,-2.550956 8.2897267,-3.944869 0.184225,-0.356248 0.183979,-0.426252 -0.0025,-0.710826 -0.264211,-0.40324 -0.867331,-0.516759 -2.24968,-0.423422 -4.052821,0.273642 -9.8463671,3.127622 -9.4615408,4.660885 0.1494137,0.59531 1.4779596,0.757587 3.423974,0.418232 z M 41.115244,21.484048 c 0.678318,-0.01847 1.275886,-0.09572 1.327928,-0.171597 0.08394,-0.122402 1.54183,-1.3297 4.133696,-3.423177 0.962776,-0.777648 2.36371,-1.922095 3.199472,-2.613708 0.308905,-0.255624 0.718811,-0.59387 0.910906,-0.751655 0.192094,-0.157785 0.318285,-0.318236 0.280422,-0.356555 -0.03784,-0.03829 -0.934208,-0.02871 -1.991888,0.02128 l -1.923048,0.09097 -0.06739,0.663964 c -0.03709,0.365178 -0.189776,0.873113 -0.339344,1.128738 -0.878163,1.500815 -5.001524,3.561097 -9.08722,4.540526 -1.320424,0.316534 -3.272146,0.373348 -4.050878,0.11792 -0.554576,-0.181901 -1.659906,-1.135925 -1.659906,-1.43268 0,-0.27061 -0.142984,-0.204662 -1.045206,0.482089 -0.46531,0.354181 -1.315868,0.87488 -1.89013,1.157105 -0.57426,0.282224 -1.045112,0.543013 -1.046326,0.57953 -0.002,0.06356 10.68613,0.03714 13.248916,-0.03277 z m -13.078443,-0.98237 c 0.694946,-0.357107 1.975431,-1.258377 2.581316,-1.816869 0.556278,-0.512759 0.733315,-1.040921 0.455066,-1.3576 -0.06097,-0.06938 -0.218755,-0.424938 -0.350643,-0.790115 -0.37528,-1.039084 -0.405574,-1.051511 -1.142704,-0.468844 -0.358552,0.283414 -0.973326,0.667357 -1.366173,0.853203 -0.659919,0.312193 -0.72643,0.386197 -0.874227,0.972714 -0.08799,0.349147 -0.194584,1.047034 -0.236884,1.550854 -0.06649,0.791878 -0.04366,0.940368 0.168566,1.095538 0.302461,0.221165 0.254916,0.223579 0.765683,-0.0389 z m -7.171032,-2.307921 c 3.720558,-0.426273 8.995579,-2.967668 8.988301,-4.330373 -0.0035,-0.69353 -0.138688,-0.764754 -1.550337,-0.818065 -2.095183,-0.07912 -4.581781,0.577262 -7.344732,1.938787 -1.84804,0.910675 -2.96966,1.878089 -2.898567,2.50006 0.03217,0.281281 0.165042,0.441555 0.508302,0.613032 0.538717,0.26912 0.723228,0.276874 2.297033,0.09656 z M 42.83522,17.871883 c 1.507778,-0.862096 3.152922,-2.323403 3.295736,-2.927446 0.07721,-0.326567 -0.647718,-2.391118 -0.839597,-2.391118 -0.07593,0 -0.338467,0.179271 -0.583425,0.398377 -0.592158,0.529673 -1.367754,1.042241 -2.128072,1.406369 -0.60187,0.288247 -0.628394,0.325975 -0.824052,1.172036 -0.336505,1.455138 -0.366574,1.695876 -0.273693,2.190993 0.07576,0.403823 0.142357,0.475664 0.439683,0.474304 0.192722,-0.001 0.603758,-0.146457 0.91342,-0.323515 z m -6.416224,-2.457107 c 3.47587,-0.822226 7.323852,-2.795388 7.838524,-4.01943 0.240306,-0.571526 0.128746,-0.834824 -0.467669,-1.103768 -1.379307,-0.621981 -5.806871,0.371903 -9.086823,2.039778 -1.86539,0.948563 -3.030946,2.003723 -2.964334,2.683572 0.03548,0.361895 0.123495,0.468356 0.507674,0.61389 0.641716,0.243102 2.682688,0.138407 4.172628,-0.214042 z" /><path
     id="path92"
     style="display:inline;fill:url(#linearGradient157);stroke-width:0.996034;stroke-dasharray:none"
     d="M 28.973377,53.88551 C 28.527246,53.698599 27.46261,53.282319 26.60752,52.960443 25.752429,52.638568 24.414025,52.127258 23.633289,51.824207 22.852555,51.521154 20.206168,50.507282 17.752435,49.571159 15.298696,48.635035 12.53064,47.572995 11.601194,47.211065 10.671749,46.849135 8.3599615,45.964296 6.463893,45.244749 1.0030752,43.172413 0.27809682,42.880558 0.1210571,42.691338 0.01591673,42.564654 -0.0168,38.966759 0.00775125,30.230639 l 0.03454246,-12.28259 0.33798127,-0.167457 c 0.4204509,-0.208319 2.33805072,-0.957435 4.12335812,-1.610808 4.303734,-1.575038 3.9306754,-1.381086 4.026194,-2.093214 0.1251457,-0.933048 0.9935211,-1.645064 2.6971099,-2.211481 1.271984,-0.422913 3.312271,-0.671159 4.803285,-0.584434 l 1.181467,0.06873 2.703844,-1.011916 c 1.487116,-0.5565498 2.80218,-1.0643649 2.922369,-1.1284716 0.120183,-0.064114 0.257535,-0.3605544 0.305223,-0.658777 0.16949,-1.0599466 1.383012,-1.9007966 3.532017,-2.4473375 1.601407,-0.4072723 4.705513,-0.4492931 6.354026,-0.086008 1.296372,0.2856804 2.53517,0.8386736 3.21405,1.4347412 0.403797,0.3545384 0.513936,0.5613699 0.585266,1.0991018 0.04834,0.3643064 0.156218,0.7163896 0.239753,0.7824117 0.08353,0.066017 1.003597,0.4413029 2.044576,0.8339654 3.766963,1.420928 3.356204,1.318644 5.006118,1.246613 3.049841,-0.133148 5.896641,0.624907 7.050774,1.87749 0.357974,0.388516 0.602071,0.993592 0.503966,1.249252 -0.0681,0.177478 0.523304,0.761007 0.771283,0.761007 0.06294,0 0.799982,0.26778 1.637868,0.595072 0.837887,0.327288 2.375138,0.91545 3.416121,1.307026 1.040979,0.391582 2.029569,0.799999 2.196869,0.907593 l 0.304187,0.195637 v 12.332823 12.332833 l -0.371781,0.170706 c -0.373039,0.171291 -4.462919,1.731778 -7.87494,3.004673 -1.003802,0.374485 -2.510636,0.948459 -3.348522,1.275501 -0.837886,0.327041 -1.553121,0.594622 -1.589409,0.594622 -0.03629,0 -0.597892,0.207798 -1.24801,0.461771 -0.650118,0.253974 -2.00332,0.766357 -3.00712,1.138619 -1.003802,0.372267 -2.555134,0.961855 -3.447402,1.310198 -0.892268,0.348344 -1.926487,0.74133 -2.298262,0.873302 -0.371781,0.131971 -1.97,0.733823 -3.551597,1.337449 -1.581602,0.60362 -3.01126,1.094925 -3.177016,1.091783 -0.165757,-0.0031 -0.666396,-0.158638 -1.112533,-0.345548 z m 8.043932,-3.458586 c 3.160118,-1.19232 6.110685,-2.305134 6.556816,-2.472925 1.056425,-0.397313 13.199772,-4.974464 13.992387,-5.274097 0.3346,-0.126494 0.745243,-0.295443 0.912543,-0.37545 L 58.783239,42.15899 V 30.811235 c 0,-10.753647 -0.01235,-11.342756 -0.236585,-11.252244 -0.470437,0.189924 -6.621482,2.528594 -7.87494,2.994106 -0.706381,0.262338 -1.649345,0.618301 -2.095477,0.791032 -0.446137,0.172725 -4.583015,1.726495 -9.193065,3.452822 -4.61005,1.726323 -8.48484,3.231699 -8.48484,3.231699 -0.07497,0.06769 -0.138094,14.215287 -0.100678,22.566481 5.12e-4,0.119509 0.08329,0.151418 0.237409,0.09156 0.130122,-0.05053 2.822137,-1.067441 5.982251,-2.259761 z M 33.653092,27.658929 c 4.63221,-1.750571 11.481589,-4.329383 18.100155,-6.814775 3.011408,-1.130832 5.566537,-2.106243 5.67807,-2.16757 0.162899,-0.08958 0.136302,-0.137106 -0.135191,-0.241618 -0.685946,-0.264065 -2.13778,-0.830932 -3.670504,-1.433143 -0.866259,-0.34036 -1.641925,-0.618836 -1.723695,-0.618836 -0.08265,0 -0.154725,0.255169 -0.162297,0.574566 -0.0349,1.472702 -0.130464,1.928178 -0.500478,2.385402 -1.432829,1.770542 -6.445599,2.512143 -10.136363,1.499594 -1.607108,-0.440903 -2.477742,-0.971906 -3.012679,-1.837451 -0.229581,-0.37147 -0.261648,-0.682882 -0.261648,-2.541015 0,-2.838688 0.186057,-3.247704 1.85749,-4.083423 0.643624,-0.321813 0.823028,-0.594203 0.391357,-0.594203 -0.09275,0 -0.793075,-0.243346 -1.556264,-0.540772 -0.763183,-0.297421 -1.444159,-0.540768 -1.513271,-0.540768 -0.0691,0 -0.125655,0.492707 -0.125655,1.094906 0,0.72082 -0.07345,1.249697 -0.214998,1.547978 -0.636393,1.341096 -3.248,2.23154 -6.612205,2.254471 -3.134187,0.02136 -5.580802,-0.720166 -6.58539,-1.995916 -0.264765,-0.336233 -0.316113,-0.583656 -0.355875,-1.714778 -0.02555,-0.727019 -0.0864,-1.323092 -0.13519,-1.324604 -0.177596,-0.0055 -3.265035,1.154002 -3.265382,1.22634 -1.99e-4,0.04093 0.287519,0.214319 0.639368,0.38526 1.012405,0.491863 1.593389,1.020393 1.770137,1.610324 0.09079,0.30302 0.158694,1.391678 0.158576,2.542181 -1.73e-4,1.645902 -0.04322,2.097827 -0.236585,2.482617 -0.367239,0.730856 -1.383216,1.403807 -2.784561,1.844421 -1.18626,0.372982 -1.345732,0.388991 -3.873442,0.388791 -2.360426,-1.79e-4 -2.75236,-0.03341 -3.746048,-0.317497 C 10.306217,20.347932 9.2201206,19.725044 8.8004884,19.100633 8.5330961,18.702751 8.4917746,18.469992 8.4917746,17.361593 v -1.27968 l -0.3717757,0.0677 c -0.2044818,0.0372 -0.6759625,0.188094 -1.0477442,0.335267 -0.3717757,0.147167 -1.5276693,0.585855 -2.5686474,0.97486 -1.0409792,0.389 -1.941172,0.752832 -2.000429,0.808516 -0.1039033,0.09764 0.6045409,0.392251 4.2311001,1.759555 1.9633377,0.740231 8.4781276,3.231668 10.9852346,4.201061 1.85605,0.717656 4.885291,1.885138 5.981371,2.305252 2.374489,0.910095 5.343813,2.056168 5.745669,2.217659 0.260244,0.104584 0.541024,0.193286 0.623953,0.197119 0.08293,0.0037 1.695091,-0.576652 3.582586,-1.289961 z m -4.950097,-0.892452 c -1.353124,-0.117481 -2.950939,-0.527001 -3.806213,-0.975534 -0.859459,-0.450729 -1.038373,-0.601469 -1.381065,-1.16363 -0.261433,-0.428855 -0.287037,-0.666806 -0.287498,-2.671995 -5.1e-4,-2.594436 0.08925,-2.906186 1.036548,-3.596439 1.336438,-0.973818 3.913277,-1.516245 6.601302,-1.389583 3.018336,0.142222 5.306721,1.011752 5.953308,2.262117 0.2593,0.501428 0.284213,4.648919 0.03138,5.222939 -0.213741,0.485267 -0.834166,1.048863 -1.532877,1.392469 -1.479537,0.727601 -4.304019,1.120286 -6.614879,0.919656 z M 33.70592,25.1613 c 0.520042,-0.160126 1.188872,-0.453808 1.486298,-0.652623 l 0.540768,-0.361484 0.03929,-1.110664 c 0.02162,-0.610866 -0.01261,-1.110664 -0.076,-1.110664 -0.06339,0 -0.367137,0.121687 -0.674977,0.270423 -0.818872,0.395633 -1.961252,0.668098 -3.373598,0.804622 -0.68545,0.06626 -1.309024,0.159252 -1.38572,0.206649 -0.158909,0.09821 -0.192648,2.132618 -0.03806,2.294225 0.179351,0.187483 2.506311,-0.04006 3.482013,-0.340484 z m -1.544951,-3.432232 c 2.302473,-0.347085 3.781168,-1.113488 3.59321,-1.86236 -0.114517,-0.456284 -0.943584,-0.933446 -2.319462,-1.334951 -0.939782,-0.274249 -1.373901,-0.315605 -3.312206,-0.31558 -1.78032,3.1e-5 -2.408079,0.0513 -3.109415,0.253949 -1.546244,0.446784 -2.568654,1.075571 -2.568654,1.579737 0,0.568884 1.578935,1.342945 3.244683,1.59067 2.193315,0.326194 2.813818,0.338477 4.471844,0.08853 z m 15.347586,-1.901515 c 0.937142,-0.181265 2.195192,-0.677394 2.642836,-1.042236 0.256006,-0.208656 0.286992,-0.39059 0.265505,-1.559191 l -0.01558,-0.846768 -0.50697,0.222418 c -0.920846,0.403992 -2.215763,0.718801 -3.635543,0.883838 l -1.400367,0.162781 v 1.16986 c 0,0.643418 0.03562,1.205482 0.07917,1.24902 0.107327,0.10733 1.399689,-0.01318 2.570937,-0.239722 z M 18.969164,19.483874 c 0.930621,-0.28788 1.597447,-0.658395 1.922189,-1.068043 0.183114,-0.230991 0.239841,-2.168034 0.06348,-2.168034 -0.06039,0 -0.37082,0.12611 -0.68985,0.280247 -0.678145,0.327645 -2.662369,0.767763 -3.96587,0.879663 l -0.912548,0.07833 v 1.226388 1.22639 l 1.318124,-0.08111 c 0.743547,-0.04573 1.730635,-0.208707 2.264468,-0.373846 z m 27.255344,-3.237068 c 1.595172,-0.151271 2.909669,-0.522904 3.659757,-1.034695 0.573881,-0.391564 0.657245,-0.545241 0.510237,-0.940614 -0.327415,-0.88053 -3.112206,-1.676514 -5.850013,-1.672113 -2.133482,0.0036 -4.801661,0.778725 -5.300606,1.540212 -0.20837,0.318013 -0.210419,0.380264 -0.02198,0.667875 0.474872,0.724748 2.860254,1.452084 5.095766,1.553769 0.260242,0.01186 1.118318,-0.03964 1.906824,-0.114434 z M 18.003833,15.96948 c 1.141849,-0.211082 2.519755,-0.814472 2.837595,-1.242599 l 0.276006,-0.371776 -0.270647,-0.362502 c -1.115717,-1.49438 -6.312827,-2.001383 -9.433831,-0.92031 -0.969101,0.335683 -1.704452,0.894855 -1.704452,1.296087 0,0.612834 1.568198,1.363968 3.513631,1.682962 1.232074,0.202019 3.451582,0.164025 4.781698,-0.08187 z m 15.645181,-2.003242 c 0.489646,-0.156303 1.143637,-0.467734 1.453314,-0.692063 l 0.563061,-0.407881 V 11.78561 c 0,-0.594385 -0.03285,-1.080693 -0.07297,-1.080693 -0.04016,0 -0.302346,0.117011 -0.582676,0.260029 -0.724963,0.369845 -2.036671,0.686985 -3.602897,0.871094 l -1.35192,0.15892 -0.03934,1.198039 -0.03934,1.198043 1.391243,-0.0703 c 0.861778,-0.04353 1.730052,-0.178459 2.281503,-0.354496 z M 33.434717,10.230832 C 34.667521,9.875069 35.555584,9.3355332 35.643439,8.8889523 35.747363,8.3607107 34.842428,7.7850089 33.140433,7.2965946 31.635828,6.8648267 28.397941,6.8697363 26.83151,7.3061546 c -1.594888,0.4443538 -2.522258,0.998099 -2.522258,1.5060664 0,0.12279 0.136881,0.3486657 0.304181,0.5019494 1.42533,1.3058926 5.871504,1.7679146 8.821284,0.9166566 z"
     sodipodi:nodetypes="ssssscsccsccsccccsssscssssssssscccssssssssscsssssscscssssccsssssssscsssssssssccsccsssscsccssccccssscscsssssccsssssscscsscsscccsssccscssssscsscscsssssssccccssssccsscsssscssscsssscsscsccccssssssscss"
     inkscape:label="lego" /></svg>
