<?xml version="1.0" encoding="UTF-8" standalone="no"?>
<!-- Created with Inkscape (http://www.inkscape.org/) -->

<svg
   width="512mm"
   height="512mm"
   viewBox="0 0 512 512"
   version="1.1"
   id="svg1"
   inkscape:version="1.3 (0e150ed6c4, 2023-07-21)"
   sodipodi:docname="logo.svg"
   inkscape:export-filename="logo-big.png"
   inkscape:export-xdpi="25.4"
   inkscape:export-ydpi="25.4"
   xmlns:inkscape="http://www.inkscape.org/namespaces/inkscape"
   xmlns:sodipodi="http://sodipodi.sourceforge.net/DTD/sodipodi-0.dtd"
   xmlns="http://www.w3.org/2000/svg"
   xmlns:svg="http://www.w3.org/2000/svg">
  <sodipodi:namedview
     id="namedview1"
     pagecolor="#505050"
     bordercolor="#ffffff"
     borderopacity="1"
     inkscape:showpageshadow="0"
     inkscape:pageopacity="0"
     inkscape:pagecheckerboard="1"
     inkscape:deskcolor="#505050"
     inkscape:document-units="mm"
     inkscape:zoom="0.24283731"
     inkscape:cx="1241.572"
     inkscape:cy="1212.7461"
     inkscape:window-width="1920"
     inkscape:window-height="1009"
     inkscape:window-x="-8"
     inkscape:window-y="-8"
     inkscape:window-maximized="1"
     inkscape:current-layer="layer1" />
  <defs
     id="defs1" />
  <g
     inkscape:label="Layer 1"
     inkscape:groupmode="layer"
     id="layer1">
    <g
       id="XMLID_17627_"
       transform="matrix(-9.1667926,-0.3426456,0.34264556,-9.1667926,475.50003,436.65735)"
       style="display:inline;stroke-width:1.09339"
       inkscape:label="syringe"
       inkscape:export-filename="..\assets\logo-big.png"
       inkscape:export-xdpi="76.131683"
       inkscape:export-ydpi="76.131683">&#10;	&#10;		&#10;	&#10;		&#10;	&#10;		<g
   id="g14"
   style="display:inline;stroke-width:1.09339">
  <rect
     id="XMLID_17637_"
     x="7.5999999"
     y="16.396812"
     transform="matrix(0.7071,0.7071,-0.7071,0.7071,28.2427,4.1637)"
     class="st3"
     width="3.0000005"
     height="22.303188"
     style="display:inline;fill:#adc4d9;fill-opacity:1;stroke:#000000;stroke-linecap:round;stroke-linejoin:round;stroke-miterlimit:10;stroke-opacity:1" />
  <path
     class="st3"
     d="M 10.2,40.8 4.5,35.1 c -0.4,-0.4 -1,-0.4 -1.4,0 -0.4,0.4 -0.4,1 0,1.4 l 5.7,5.7 c 0.4,0.4 1,0.4 1.4,0 0.3,-0.4 0.3,-1 0,-1.4 z"
     id="path6-5"
     style="display:inline;fill:#adc4d9;fill-opacity:1;stroke:#000000;stroke-linecap:round;stroke-linejoin:round;stroke-miterlimit:10;stroke-opacity:1" />
</g>
<rect
   id="XMLID_17650_"
   x="14.6"
   y="20.6"
   transform="matrix(0.7071,0.7071,-0.7071,0.7071,24.2886,-5.3822)"
   class="st3"
   width="8"
   height="12"
   style="fill:#e5f8ff;fill-opacity:1;stroke:#000000;stroke-linecap:round;stroke-linejoin:round;stroke-miterlimit:10;stroke-opacity:1" />
&#10;	&#10;	&#10;	&#10;	<path
   id="XMLID_17646_"
   class="st3"
   d="M 25.7,25.2 20,19.5 27.2,12.3 c 0.1,-0.1 0.3,-0.1 0.4,0 l 5.2,5.2 c 0.1,0.1 0.1,0.3 0,0.5 z"
   style="fill:#fda813;fill-opacity:1;stroke:#000000;stroke-linecap:round;stroke-linejoin:round;stroke-miterlimit:10;stroke-opacity:1" />
&#10;	&#10;	&#10;	<polygon
   id="XMLID_17643_"
   class="st3"
   points="27.7,12.4 30.3,12.1 33.1,15 32.9,17.5 "
   style="fill:#d9fdff;fill-opacity:1;stroke:#000000;stroke-linecap:round;stroke-linejoin:round;stroke-miterlimit:10;stroke-opacity:1" />
&#10;	&#10;	&#10;	<path
   class="st3"
   d="M 18.6,35.1 10.1,26.6 C 9.6,26 8.6,26 8,26.6 7.4,27.2 7.4,28.1 8,28.7 l 8.5,8.5 c 0.6,0.6 1.5,0.6 2.1,0 0.6,-0.6 0.6,-1.5 0,-2.1 z"
   id="path3-6"
   style="fill:#e5feff;fill-opacity:1;stroke:#000000;stroke-linecap:round;stroke-linejoin:round;stroke-miterlimit:10;stroke-opacity:1" />
&#10;	&#10;	&#10;	<path
   id="XMLID_17640_"
   class="st3"
   d="M 13,36.5 8.6,32.1 C 8.5,32 8.5,31.8 8.6,31.7 l 1.2,-1.2 4.9,4.9 -1.1,1.1 c -0.1,0.2 -0.4,0.2 -0.6,0 z"
   style="fill:#e5feff;fill-opacity:1;stroke:#000000;stroke-linecap:round;stroke-linejoin:round;stroke-miterlimit:10;stroke-opacity:1" />
&#10;	&#10;		&#10;	&#10;		&#10;	&#10;		&#10;	&#10;	&#10;	&#10;	&#10;	&#10;	<path
   id="XMLID_17635_"
   class="st3"
   d="m 30.3,10.7 c 0.4,-0.4 1,-0.4 1.4,0 l 2.8,2.8 c 0.4,0.4 0.4,1 0,1.4 -0.4,0.4 -1,0.4 -1.4,0 l -2.8,-2.8 c -0.4,-0.4 -0.4,-1 0,-1.4 z"
   style="fill:#d9fdff;fill-opacity:1;stroke:#000000;stroke-linecap:round;stroke-linejoin:round;stroke-miterlimit:10;stroke-opacity:1" />
&#10;	&#10;	&#10;	<path
   id="XMLID_17632_"
   class="st3"
   d="m 34.2,13.2 -2.1,-2.1 2.8,-2.8 c 0.4,-0.4 1,-0.4 1.4,0 L 37,9 c 0.4,0.4 0.4,1 0,1.4 z"
   style="fill:#d9fdff;fill-opacity:1;stroke:#000000;stroke-linecap:round;stroke-linejoin:round;stroke-miterlimit:10;stroke-opacity:1" />
&#10;	&#10;	&#10;	&#10;	&#10;		&#10;	&#10;		&#10;	&#10;		&#10;	<path
   id="XMLID_17628_"
   class="st3"
   style="fill:none;stroke:#000000;stroke-linecap:round;stroke-linejoin:round;stroke-miterlimit:10;stroke-opacity:1"
   d="M 36.700001,8.6000004 41.599998,3.5999999" />
&#10;	&#10;	&#10;	&#10;</g>
    <path
       class="st3"
       d="m 72.488517,458.10979 13.993889,-55.21684 c 0.883168,-2.7631 3.612187,-4.63174 5.446696,-4.65444 1.83451,-0.0234 4.608929,1.77771 5.560316,4.51804 l 15.358062,54.85303 c 3.83949,13.71337 -6.09108,26.68013 -19.84988,26.85068 -13.758729,0.17102 -24.007555,-12.54625 -20.509083,-26.35047 z"
       id="path13-0"
       style="display:inline;fill:#c00100;fill-opacity:0.709677;stroke:#000000;stroke-width:10.0299;stroke-linecap:round;stroke-linejoin:round;stroke-miterlimit:10;stroke-opacity:1"
       inkscape:label="blood"
       inkscape:export-filename="..\assets\logo.png"
       inkscape:export-xdpi="15.521784"
       inkscape:export-ydpi="15.521784" />
  </g>
</svg>
